<?xml version="1.0" encoding="utf-8" standalone="no"?>
<!DOCTYPE svg PUBLIC "-//W3C//DTD SVG 1.1//EN"
  "http://www.w3.org/Graphics/SVG/1.1/DTD/svg11.dtd">
<!-- Created with matplotlib (https://matplotlib.org/) -->
<svg height="360pt" version="1.1" viewBox="0 0 576 360" width="576pt" xmlns="http://www.w3.org/2000/svg" xmlns:xlink="http://www.w3.org/1999/xlink">
 <metadata>
  <rdf:RDF xmlns:cc="http://creativecommons.org/ns#" xmlns:dc="http://purl.org/dc/elements/1.1/" xmlns:rdf="http://www.w3.org/1999/02/22-rdf-syntax-ns#">
   <cc:Work>
    <dc:type rdf:resource="http://purl.org/dc/dcmitype/StillImage"/>
    <dc:date>2021-08-09T04:55:17.078290</dc:date>
    <dc:format>image/svg+xml</dc:format>
    <dc:creator>
     <cc:Agent>
      <dc:title>Matplotlib v3.3.4, https://matplotlib.org/</dc:title>
     </cc:Agent>
    </dc:creator>
   </cc:Work>
  </rdf:RDF>
 </metadata>
 <defs>
  <style type="text/css">*{stroke-linecap:butt;stroke-linejoin:round;}</style>
 </defs>
 <g id="figure_1">
  <g id="patch_1">
   <path d="M 0 360 
L 576 360 
L 576 0 
L 0 0 
z
" style="fill:#ffffff;"/>
  </g>
  <g id="axes_1">
   <g id="patch_2">
    <path d="M 72 315 
L 518.4 315 
L 518.4 43.2 
L 72 43.2 
z
" style="fill:#ffffff;"/>
   </g>
   <g id="matplotlib.axis_1">
    <g id="xtick_1">
     <g id="line2d_1">
      <path clip-path="url(#p3214ef0bb7)" d="M 92.290909 315 
L 92.290909 43.2 
" style="fill:none;stroke:#cccccc;stroke-linecap:round;stroke-width:0.8;"/>
     </g>
     <g id="text_1">
      <!-- 0.0 -->
      <g style="fill:#262626;" transform="translate(85.340909 329.157812)scale(0.1 -0.1)">
       <defs>
        <path d="M 4.15625 35.296875 
Q 4.15625 48 6.765625 55.734375 
Q 9.375 63.484375 14.515625 67.671875 
Q 19.671875 71.875 27.484375 71.875 
Q 33.25 71.875 37.59375 69.546875 
Q 41.9375 67.234375 44.765625 62.859375 
Q 47.609375 58.5 49.21875 52.21875 
Q 50.828125 45.953125 50.828125 35.296875 
Q 50.828125 22.703125 48.234375 14.96875 
Q 45.65625 7.234375 40.5 3 
Q 35.359375 -1.21875 27.484375 -1.21875 
Q 17.140625 -1.21875 11.234375 6.203125 
Q 4.15625 15.140625 4.15625 35.296875 
z
M 13.1875 35.296875 
Q 13.1875 17.671875 17.3125 11.828125 
Q 21.4375 6 27.484375 6 
Q 33.546875 6 37.671875 11.859375 
Q 41.796875 17.71875 41.796875 35.296875 
Q 41.796875 52.984375 37.671875 58.78125 
Q 33.546875 64.59375 27.390625 64.59375 
Q 21.34375 64.59375 17.71875 59.46875 
Q 13.1875 52.9375 13.1875 35.296875 
z
" id="ArialMT-48"/>
        <path d="M 9.078125 0 
L 9.078125 10.015625 
L 19.09375 10.015625 
L 19.09375 0 
z
" id="ArialMT-46"/>
       </defs>
       <use xlink:href="#ArialMT-48"/>
       <use x="55.615234" xlink:href="#ArialMT-46"/>
       <use x="83.398438" xlink:href="#ArialMT-48"/>
      </g>
     </g>
    </g>
    <g id="xtick_2">
     <g id="line2d_2">
      <path clip-path="url(#p3214ef0bb7)" d="M 173.454545 315 
L 173.454545 43.2 
" style="fill:none;stroke:#cccccc;stroke-linecap:round;stroke-width:0.8;"/>
     </g>
     <g id="text_2">
      <!-- 0.2 -->
      <g style="fill:#262626;" transform="translate(166.504545 329.157812)scale(0.1 -0.1)">
       <defs>
        <path d="M 50.34375 8.453125 
L 50.34375 0 
L 3.03125 0 
Q 2.9375 3.171875 4.046875 6.109375 
Q 5.859375 10.9375 9.828125 15.625 
Q 13.8125 20.3125 21.34375 26.46875 
Q 33.015625 36.03125 37.109375 41.625 
Q 41.21875 47.21875 41.21875 52.203125 
Q 41.21875 57.421875 37.46875 61 
Q 33.734375 64.59375 27.734375 64.59375 
Q 21.390625 64.59375 17.578125 60.78125 
Q 13.765625 56.984375 13.71875 50.25 
L 4.6875 51.171875 
Q 5.609375 61.28125 11.65625 66.578125 
Q 17.71875 71.875 27.9375 71.875 
Q 38.234375 71.875 44.234375 66.15625 
Q 50.25 60.453125 50.25 52 
Q 50.25 47.703125 48.484375 43.546875 
Q 46.734375 39.40625 42.65625 34.8125 
Q 38.578125 30.21875 29.109375 22.21875 
Q 21.1875 15.578125 18.9375 13.203125 
Q 16.703125 10.84375 15.234375 8.453125 
z
" id="ArialMT-50"/>
       </defs>
       <use xlink:href="#ArialMT-48"/>
       <use x="55.615234" xlink:href="#ArialMT-46"/>
       <use x="83.398438" xlink:href="#ArialMT-50"/>
      </g>
     </g>
    </g>
    <g id="xtick_3">
     <g id="line2d_3">
      <path clip-path="url(#p3214ef0bb7)" d="M 254.618182 315 
L 254.618182 43.2 
" style="fill:none;stroke:#cccccc;stroke-linecap:round;stroke-width:0.8;"/>
     </g>
     <g id="text_3">
      <!-- 0.4 -->
      <g style="fill:#262626;" transform="translate(247.668182 329.157812)scale(0.1 -0.1)">
       <defs>
        <path d="M 32.328125 0 
L 32.328125 17.140625 
L 1.265625 17.140625 
L 1.265625 25.203125 
L 33.9375 71.578125 
L 41.109375 71.578125 
L 41.109375 25.203125 
L 50.78125 25.203125 
L 50.78125 17.140625 
L 41.109375 17.140625 
L 41.109375 0 
z
M 32.328125 25.203125 
L 32.328125 57.46875 
L 9.90625 25.203125 
z
" id="ArialMT-52"/>
       </defs>
       <use xlink:href="#ArialMT-48"/>
       <use x="55.615234" xlink:href="#ArialMT-46"/>
       <use x="83.398438" xlink:href="#ArialMT-52"/>
      </g>
     </g>
    </g>
    <g id="xtick_4">
     <g id="line2d_4">
      <path clip-path="url(#p3214ef0bb7)" d="M 335.781818 315 
L 335.781818 43.2 
" style="fill:none;stroke:#cccccc;stroke-linecap:round;stroke-width:0.8;"/>
     </g>
     <g id="text_4">
      <!-- 0.6 -->
      <g style="fill:#262626;" transform="translate(328.831818 329.157812)scale(0.1 -0.1)">
       <defs>
        <path d="M 49.75 54.046875 
L 41.015625 53.375 
Q 39.84375 58.546875 37.703125 60.890625 
Q 34.125 64.65625 28.90625 64.65625 
Q 24.703125 64.65625 21.53125 62.3125 
Q 17.390625 59.28125 14.984375 53.46875 
Q 12.59375 47.65625 12.5 36.921875 
Q 15.671875 41.75 20.265625 44.09375 
Q 24.859375 46.4375 29.890625 46.4375 
Q 38.671875 46.4375 44.84375 39.96875 
Q 51.03125 33.5 51.03125 23.25 
Q 51.03125 16.5 48.125 10.71875 
Q 45.21875 4.9375 40.140625 1.859375 
Q 35.0625 -1.21875 28.609375 -1.21875 
Q 17.625 -1.21875 10.6875 6.859375 
Q 3.765625 14.9375 3.765625 33.5 
Q 3.765625 54.25 11.421875 63.671875 
Q 18.109375 71.875 29.4375 71.875 
Q 37.890625 71.875 43.28125 67.140625 
Q 48.6875 62.40625 49.75 54.046875 
z
M 13.875 23.1875 
Q 13.875 18.65625 15.796875 14.5 
Q 17.71875 10.359375 21.1875 8.171875 
Q 24.65625 6 28.46875 6 
Q 34.03125 6 38.03125 10.484375 
Q 42.046875 14.984375 42.046875 22.703125 
Q 42.046875 30.125 38.078125 34.390625 
Q 34.125 38.671875 28.125 38.671875 
Q 22.171875 38.671875 18.015625 34.390625 
Q 13.875 30.125 13.875 23.1875 
z
" id="ArialMT-54"/>
       </defs>
       <use xlink:href="#ArialMT-48"/>
       <use x="55.615234" xlink:href="#ArialMT-46"/>
       <use x="83.398438" xlink:href="#ArialMT-54"/>
      </g>
     </g>
    </g>
    <g id="xtick_5">
     <g id="line2d_5">
      <path clip-path="url(#p3214ef0bb7)" d="M 416.945455 315 
L 416.945455 43.2 
" style="fill:none;stroke:#cccccc;stroke-linecap:round;stroke-width:0.8;"/>
     </g>
     <g id="text_5">
      <!-- 0.8 -->
      <g style="fill:#262626;" transform="translate(409.995455 329.157812)scale(0.1 -0.1)">
       <defs>
        <path d="M 17.671875 38.8125 
Q 12.203125 40.828125 9.5625 44.53125 
Q 6.9375 48.25 6.9375 53.421875 
Q 6.9375 61.234375 12.546875 66.546875 
Q 18.171875 71.875 27.484375 71.875 
Q 36.859375 71.875 42.578125 66.421875 
Q 48.296875 60.984375 48.296875 53.171875 
Q 48.296875 48.1875 45.671875 44.5 
Q 43.0625 40.828125 37.75 38.8125 
Q 44.34375 36.671875 47.78125 31.875 
Q 51.21875 27.09375 51.21875 20.453125 
Q 51.21875 11.28125 44.71875 5.03125 
Q 38.234375 -1.21875 27.640625 -1.21875 
Q 17.046875 -1.21875 10.546875 5.046875 
Q 4.046875 11.328125 4.046875 20.703125 
Q 4.046875 27.6875 7.59375 32.390625 
Q 11.140625 37.109375 17.671875 38.8125 
z
M 15.921875 53.71875 
Q 15.921875 48.640625 19.1875 45.40625 
Q 22.46875 42.1875 27.6875 42.1875 
Q 32.765625 42.1875 36.015625 45.375 
Q 39.265625 48.578125 39.265625 53.21875 
Q 39.265625 58.0625 35.90625 61.359375 
Q 32.5625 64.65625 27.59375 64.65625 
Q 22.5625 64.65625 19.234375 61.421875 
Q 15.921875 58.203125 15.921875 53.71875 
z
M 13.09375 20.65625 
Q 13.09375 16.890625 14.875 13.375 
Q 16.65625 9.859375 20.171875 7.921875 
Q 23.6875 6 27.734375 6 
Q 34.03125 6 38.125 10.046875 
Q 42.234375 14.109375 42.234375 20.359375 
Q 42.234375 26.703125 38.015625 30.859375 
Q 33.796875 35.015625 27.4375 35.015625 
Q 21.234375 35.015625 17.15625 30.90625 
Q 13.09375 26.8125 13.09375 20.65625 
z
" id="ArialMT-56"/>
       </defs>
       <use xlink:href="#ArialMT-48"/>
       <use x="55.615234" xlink:href="#ArialMT-46"/>
       <use x="83.398438" xlink:href="#ArialMT-56"/>
      </g>
     </g>
    </g>
    <g id="xtick_6">
     <g id="line2d_6">
      <path clip-path="url(#p3214ef0bb7)" d="M 498.109091 315 
L 498.109091 43.2 
" style="fill:none;stroke:#cccccc;stroke-linecap:round;stroke-width:0.8;"/>
     </g>
     <g id="text_6">
      <!-- 1.0 -->
      <g style="fill:#262626;" transform="translate(491.159091 329.157812)scale(0.1 -0.1)">
       <defs>
        <path d="M 37.25 0 
L 28.46875 0 
L 28.46875 56 
Q 25.296875 52.984375 20.140625 49.953125 
Q 14.984375 46.921875 10.890625 45.40625 
L 10.890625 53.90625 
Q 18.265625 57.375 23.78125 62.296875 
Q 29.296875 67.234375 31.59375 71.875 
L 37.25 71.875 
z
" id="ArialMT-49"/>
       </defs>
       <use xlink:href="#ArialMT-49"/>
       <use x="55.615234" xlink:href="#ArialMT-46"/>
       <use x="83.398438" xlink:href="#ArialMT-48"/>
      </g>
     </g>
    </g>
   </g>
   <g id="matplotlib.axis_2">
    <g id="ytick_1">
     <g id="line2d_7">
      <path clip-path="url(#p3214ef0bb7)" d="M 72 302.645455 
L 518.4 302.645455 
" style="fill:none;stroke:#cccccc;stroke-linecap:round;stroke-width:0.8;"/>
     </g>
     <g id="text_7">
      <!-- 0.0 -->
      <g style="fill:#262626;" transform="translate(51.1 306.224361)scale(0.1 -0.1)">
       <use xlink:href="#ArialMT-48"/>
       <use x="55.615234" xlink:href="#ArialMT-46"/>
       <use x="83.398438" xlink:href="#ArialMT-48"/>
      </g>
     </g>
    </g>
    <g id="ytick_2">
     <g id="line2d_8">
      <path clip-path="url(#p3214ef0bb7)" d="M 72 253.227273 
L 518.4 253.227273 
" style="fill:none;stroke:#cccccc;stroke-linecap:round;stroke-width:0.8;"/>
     </g>
     <g id="text_8">
      <!-- 0.2 -->
      <g style="fill:#262626;" transform="translate(51.1 256.806179)scale(0.1 -0.1)">
       <use xlink:href="#ArialMT-48"/>
       <use x="55.615234" xlink:href="#ArialMT-46"/>
       <use x="83.398438" xlink:href="#ArialMT-50"/>
      </g>
     </g>
    </g>
    <g id="ytick_3">
     <g id="line2d_9">
      <path clip-path="url(#p3214ef0bb7)" d="M 72 203.809091 
L 518.4 203.809091 
" style="fill:none;stroke:#cccccc;stroke-linecap:round;stroke-width:0.8;"/>
     </g>
     <g id="text_9">
      <!-- 0.4 -->
      <g style="fill:#262626;" transform="translate(51.1 207.387997)scale(0.1 -0.1)">
       <use xlink:href="#ArialMT-48"/>
       <use x="55.615234" xlink:href="#ArialMT-46"/>
       <use x="83.398438" xlink:href="#ArialMT-52"/>
      </g>
     </g>
    </g>
    <g id="ytick_4">
     <g id="line2d_10">
      <path clip-path="url(#p3214ef0bb7)" d="M 72 154.390909 
L 518.4 154.390909 
" style="fill:none;stroke:#cccccc;stroke-linecap:round;stroke-width:0.8;"/>
     </g>
     <g id="text_10">
      <!-- 0.6 -->
      <g style="fill:#262626;" transform="translate(51.1 157.969815)scale(0.1 -0.1)">
       <use xlink:href="#ArialMT-48"/>
       <use x="55.615234" xlink:href="#ArialMT-46"/>
       <use x="83.398438" xlink:href="#ArialMT-54"/>
      </g>
     </g>
    </g>
    <g id="ytick_5">
     <g id="line2d_11">
      <path clip-path="url(#p3214ef0bb7)" d="M 72 104.972727 
L 518.4 104.972727 
" style="fill:none;stroke:#cccccc;stroke-linecap:round;stroke-width:0.8;"/>
     </g>
     <g id="text_11">
      <!-- 0.8 -->
      <g style="fill:#262626;" transform="translate(51.1 108.551634)scale(0.1 -0.1)">
       <use xlink:href="#ArialMT-48"/>
       <use x="55.615234" xlink:href="#ArialMT-46"/>
       <use x="83.398438" xlink:href="#ArialMT-56"/>
      </g>
     </g>
    </g>
    <g id="ytick_6">
     <g id="line2d_12">
      <path clip-path="url(#p3214ef0bb7)" d="M 72 55.554545 
L 518.4 55.554545 
" style="fill:none;stroke:#cccccc;stroke-linecap:round;stroke-width:0.8;"/>
     </g>
     <g id="text_12">
      <!-- 1.0 -->
      <g style="fill:#262626;" transform="translate(51.1 59.133452)scale(0.1 -0.1)">
       <use xlink:href="#ArialMT-49"/>
       <use x="55.615234" xlink:href="#ArialMT-46"/>
       <use x="83.398438" xlink:href="#ArialMT-48"/>
      </g>
     </g>
    </g>
   </g>
   <g id="PolyCollection_1">
    <defs>
     <path d="M 92.290909 -61.692933 
L 92.290909 -57.354545 
L 92.298461 -61.692933 
L 92.306014 -77.15337 
L 92.313566 -78.178807 
L 92.321118 -87.604941 
L 92.32867 -91.036211 
L 92.336222 -94.151963 
L 92.343775 -106.023369 
L 92.351327 -121.917645 
L 92.358879 -130.278902 
L 92.366431 -132.724175 
L 92.373983 -132.921374 
L 92.381536 -137.93024 
L 92.389088 -138.797918 
L 92.39664 -140.809352 
L 92.404192 -141.992549 
L 92.411745 -142.347508 
L 92.419297 -144.437822 
L 92.426849 -145.22662 
L 92.434401 -150.827084 
L 92.441953 -156.664188 
L 92.449506 -158.399543 
L 92.457058 -160.687057 
L 92.46461 -161.120895 
L 92.472162 -162.304092 
L 92.479714 -163.447849 
L 92.487267 -164.788805 
L 92.494819 -168.969433 
L 92.502371 -172.164064 
L 92.509923 -172.795103 
L 92.517475 -174.096619 
L 92.525028 -177.922288 
L 92.53258 -178.632206 
L 92.540132 -179.657643 
L 92.547684 -183.917152 
L 92.555237 -186.362425 
L 92.562789 -188.2161 
L 92.570341 -188.334419 
L 92.592998 -188.413299 
L 92.60055 -188.847138 
L 92.608102 -190.858572 
L 92.615654 -191.213531 
L 92.623206 -191.331851 
L 92.630759 -191.64737 
L 92.638311 -192.554487 
L 92.645863 -192.988326 
L 92.653415 -193.816564 
L 92.660968 -195.27584 
L 92.676072 -195.551919 
L 92.683624 -198.115512 
L 92.691176 -198.62823 
L 92.698729 -199.495908 
L 92.706281 -199.614228 
L 92.713833 -200.442465 
L 92.721385 -200.560785 
L 92.73649 -202.4539 
L 92.744042 -202.49334 
L 92.751594 -203.715976 
L 92.759146 -205.648531 
L 92.766699 -206.121809 
L 92.774251 -206.516208 
L 92.781803 -208.212124 
L 92.789355 -209.000921 
L 92.796907 -209.43476 
L 92.80446 -209.6714 
L 92.812012 -210.144678 
L 92.819564 -211.801154 
L 92.827116 -212.629391 
L 92.834668 -212.747711 
L 92.842221 -215.232424 
L 92.849773 -215.390184 
L 92.857325 -216.61282 
L 92.864877 -217.164979 
L 92.87243 -217.322738 
L 92.879982 -218.190416 
L 92.887534 -218.229856 
L 92.895086 -219.373612 
L 92.902638 -219.491932 
L 92.910191 -220.12297 
L 92.917743 -220.35961 
L 92.925295 -221.542806 
L 92.932847 -221.582246 
L 92.940399 -222.055525 
L 92.947952 -222.252724 
L 92.955504 -222.371044 
L 92.963056 -222.449924 
L 92.970608 -223.080962 
L 92.985713 -223.475361 
L 93.000817 -223.67256 
L 93.008369 -224.619118 
L 93.015922 -225.605115 
L 93.023474 -225.683995 
L 93.031026 -226.196713 
L 93.038578 -226.669992 
L 93.04613 -226.827752 
L 93.053683 -227.103831 
L 93.061235 -228.208148 
L 93.068787 -228.641987 
L 93.076339 -230.140702 
L 93.091444 -230.219582 
L 93.098996 -230.771741 
L 93.106548 -230.85062 
L 93.121653 -230.96894 
L 93.129205 -231.205579 
L 93.136757 -231.323899 
L 93.151861 -231.915497 
L 93.159414 -232.152137 
L 93.166966 -232.664855 
L 93.174518 -232.940934 
L 93.18207 -232.980374 
L 93.189622 -233.217014 
L 93.197175 -233.690292 
L 93.204727 -234.005812 
L 93.212279 -234.163571 
L 93.219831 -234.952369 
L 93.227384 -235.149568 
L 93.242488 -235.543967 
L 93.25004 -235.701727 
L 93.265145 -235.820046 
L 93.272697 -236.569404 
L 93.280249 -236.766604 
L 93.287801 -236.884923 
L 93.295353 -237.279322 
L 93.302906 -237.397642 
L 93.310458 -237.870921 
L 93.31801 -238.02868 
L 93.325562 -238.147 
L 93.333115 -238.304759 
L 93.340667 -238.580839 
L 93.348219 -239.093557 
L 93.363323 -239.330197 
L 93.370876 -239.409076 
L 93.378428 -239.724596 
L 93.38598 -240.079555 
L 93.393532 -240.395074 
L 93.401084 -240.710593 
L 93.408637 -241.104992 
L 93.416189 -241.262751 
L 93.431293 -241.499391 
L 93.438846 -241.85435 
L 93.446398 -241.972669 
L 93.45395 -242.012109 
L 93.461502 -242.051549 
L 93.469054 -242.209309 
L 93.476607 -242.288188 
L 93.484159 -242.840347 
L 93.491711 -242.879787 
L 93.499263 -242.958666 
L 93.506815 -243.116426 
L 93.52192 -243.195306 
L 93.529472 -243.550265 
L 93.537024 -243.589705 
L 93.559681 -243.984104 
L 93.567233 -244.023543 
L 93.574785 -244.102423 
L 93.582338 -244.378503 
L 93.58989 -244.496822 
L 93.597442 -244.536262 
L 93.604994 -245.24618 
L 93.612546 -245.719459 
L 93.620099 -245.798339 
L 93.627651 -245.916658 
L 93.635203 -245.956098 
L 93.650307 -246.034978 
L 93.665412 -246.074418 
L 93.672964 -246.626576 
L 93.688069 -246.744896 
L 93.695621 -247.020975 
L 93.703173 -247.060415 
L 93.710725 -247.454814 
L 93.718277 -248.006972 
L 93.72583 -248.71689 
L 93.733382 -248.83521 
L 93.740934 -248.87465 
L 93.756038 -248.91409 
L 93.763591 -248.99297 
L 93.771143 -249.190169 
L 93.786247 -249.584568 
L 93.801352 -250.255046 
L 93.808904 -250.294486 
L 93.816456 -250.491685 
L 93.831561 -250.964964 
L 93.846665 -251.241043 
L 93.854217 -251.753762 
L 93.869322 -252.069281 
L 93.876874 -252.227041 
L 93.891978 -252.26648 
L 93.899531 -252.3848 
L 93.907083 -252.976398 
L 93.914635 -253.134158 
L 93.929739 -253.331357 
L 93.944844 -253.804636 
L 93.952396 -253.962396 
L 93.9675 -254.041275 
L 93.975053 -254.238475 
L 93.982605 -254.632874 
L 93.990157 -254.672314 
L 93.997709 -254.711754 
L 94.005262 -254.751193 
L 94.012814 -254.948393 
L 94.043023 -255.185032 
L 94.050575 -255.421672 
L 94.065679 -255.461112 
L 94.073231 -255.500551 
L 94.080784 -255.579431 
L 94.095888 -255.697751 
L 94.10344 -255.89495 
L 94.110992 -256.13159 
L 94.118545 -256.683748 
L 94.17141 -256.920387 
L 94.178962 -256.959827 
L 94.186515 -256.999267 
L 94.194067 -257.275346 
L 94.201619 -257.314786 
L 94.224276 -257.393666 
L 94.231828 -257.630305 
L 94.246932 -257.788065 
L 94.254485 -257.945825 
L 94.262037 -258.143024 
L 94.277141 -258.419103 
L 94.314902 -258.497983 
L 94.322454 -258.576863 
L 94.330007 -258.734622 
L 94.337559 -258.852942 
L 94.345111 -259.050141 
L 94.352663 -259.089581 
L 94.360216 -259.6023 
L 94.367768 -259.64174 
L 94.37532 -259.799499 
L 94.382872 -259.838939 
L 94.390424 -259.917819 
L 94.405529 -260.036139 
L 94.420633 -260.115019 
L 94.428185 -260.154458 
L 94.435738 -260.193898 
L 94.450842 -260.351658 
L 94.481051 -260.469978 
L 94.496155 -260.588297 
L 94.503708 -260.903816 
L 94.51126 -260.982696 
L 94.533916 -261.061576 
L 94.541469 -261.219335 
L 94.549021 -261.258775 
L 94.556573 -261.377095 
L 94.564125 -261.613734 
L 94.57923 -261.929253 
L 94.586782 -262.087013 
L 94.594334 -262.126453 
L 94.601886 -262.165893 
L 94.609439 -262.205333 
L 94.624543 -262.599732 
L 94.632095 -262.757491 
L 94.639647 -262.875811 
L 94.654752 -262.915251 
L 94.662304 -263.11245 
L 94.669856 -263.15189 
L 94.677408 -263.427969 
L 94.730274 -263.506849 
L 94.737826 -263.546289 
L 94.752931 -263.664609 
L 94.768035 -263.743488 
L 94.783139 -263.782928 
L 94.805796 -264.098447 
L 94.813348 -264.177327 
L 94.820901 -264.216767 
L 94.843557 -264.453406 
L 94.858662 -264.532286 
L 94.866214 -264.611166 
L 94.873766 -264.729486 
L 94.881318 -264.887245 
L 94.896423 -264.926685 
L 94.903975 -265.045005 
L 94.911527 -265.123884 
L 94.964393 -265.360524 
L 94.971945 -265.399964 
L 94.979497 -265.439404 
L 94.987049 -265.478844 
L 95.002154 -265.518283 
L 95.017258 -265.557723 
L 95.02481 -265.597163 
L 95.047467 -265.636603 
L 95.055019 -265.676043 
L 95.070124 -266.031002 
L 95.077676 -266.109882 
L 95.100332 -266.346521 
L 95.115437 -266.543721 
L 95.122989 -266.58316 
L 95.130541 -266.6226 
L 95.153198 -266.70148 
L 95.175855 -266.74092 
L 95.206063 -266.78036 
L 95.213616 -266.89868 
L 95.221168 -267.016999 
L 95.22872 -267.214199 
L 95.243824 -267.450838 
L 95.251377 -267.529718 
L 95.258929 -267.608598 
L 95.274033 -267.648037 
L 95.29669 -267.726917 
L 95.311794 -267.766357 
L 95.319347 -267.805797 
L 95.334451 -267.963557 
L 95.342003 -268.042436 
L 95.357108 -268.279076 
L 95.372212 -268.555155 
L 95.394869 -268.673475 
L 95.402421 -268.712914 
L 95.409973 -268.752354 
L 95.425078 -268.791794 
L 95.43263 -268.949554 
L 95.440182 -269.067873 
L 95.447734 -269.422832 
L 95.455286 -269.462272 
L 95.462839 -269.501712 
L 95.470391 -269.620032 
L 95.485495 -269.659472 
L 95.5006 -269.698912 
L 95.523256 -269.738352 
L 95.538361 -269.817231 
L 95.561017 -270.053871 
L 95.591226 -270.093311 
L 95.606331 -270.21163 
L 95.613883 -270.36939 
L 95.63654 -270.40883 
L 95.644092 -270.527149 
L 95.651644 -270.606029 
L 95.659196 -270.684909 
L 95.666748 -270.803229 
L 95.674301 -270.960988 
L 95.689405 -271.039868 
L 95.696957 -271.079308 
L 95.712062 -271.118748 
L 95.734718 -271.158188 
L 95.749823 -271.197628 
L 95.772479 -271.276507 
L 95.780032 -271.315947 
L 95.787584 -271.355387 
L 95.802688 -271.473707 
L 95.825345 -271.592026 
L 95.832897 -271.631466 
L 95.840449 -271.710346 
L 95.855554 -271.749786 
L 95.893315 -271.789226 
L 95.900867 -271.986425 
L 95.923524 -272.144185 
L 95.931076 -272.301944 
L 95.938628 -272.341384 
L 95.94618 -272.380824 
L 95.953733 -272.459704 
L 95.976389 -272.499144 
L 95.983941 -272.538584 
L 95.999046 -272.578024 
L 96.01415 -272.617464 
L 96.029255 -272.656903 
L 96.036807 -272.696343 
L 96.074568 -272.735783 
L 96.08212 -272.775223 
L 96.089672 -272.814663 
L 96.104777 -272.932983 
L 96.112329 -273.011862 
L 96.134986 -273.248502 
L 96.142538 -273.287942 
L 96.15009 -273.366821 
L 96.157642 -273.406261 
L 96.165195 -273.445701 
L 96.172747 -273.564021 
L 96.180299 -273.642901 
L 96.187851 -273.682341 
L 96.248269 -273.72178 
L 96.263373 -273.76122 
L 96.308687 -273.87954 
L 96.316239 -273.95842 
L 96.331343 -273.99786 
L 96.346448 -274.0373 
L 96.354 -274.195059 
L 96.369104 -274.313379 
L 96.376656 -274.352819 
L 96.384209 -274.392259 
L 96.391761 -274.431698 
L 96.399313 -274.550018 
L 96.437074 -274.589458 
L 96.444626 -274.628898 
L 96.497492 -274.904977 
L 96.505044 -274.944417 
L 96.512596 -275.102177 
L 96.520149 -275.141616 
L 96.527701 -275.181056 
L 96.535253 -275.299376 
L 96.55791 -275.378256 
L 96.565462 -275.457136 
L 96.595671 -275.496575 
L 96.603223 -275.575455 
L 96.62588 -275.654335 
L 96.633432 -275.693775 
L 96.648536 -275.733215 
L 96.671193 -275.772655 
L 96.693849 -275.851534 
L 96.716506 -275.930414 
L 96.724058 -275.969854 
L 96.739163 -276.048734 
L 96.784476 -276.088174 
L 96.807133 -276.127614 
L 96.814685 -276.167054 
L 96.822237 -276.206494 
L 96.844894 -276.245933 
L 96.875103 -276.364253 
L 96.897759 -276.403693 
L 96.905311 -276.443133 
L 96.93552 -276.482573 
L 96.943072 -276.522013 
L 96.965729 -276.561453 
L 96.995938 -276.640332 
L 97.00349 -276.719212 
L 97.011042 -276.758652 
L 97.033699 -276.798092 
L 97.048803 -276.995291 
L 97.07146 -277.034731 
L 97.101669 -277.074171 
L 97.116773 -277.113611 
L 97.13943 -277.153051 
L 97.146982 -277.231931 
L 97.162087 -277.271371 
L 97.184743 -277.35025 
L 97.192296 -277.38969 
L 97.199848 -277.46857 
L 97.2074 -277.50801 
L 97.214952 -277.54745 
L 97.222504 -277.58689 
L 97.267818 -277.62633 
L 97.27537 -277.665769 
L 97.34334 -277.744649 
L 97.365996 -277.823529 
L 97.418862 -277.902409 
L 97.449071 -277.981289 
L 97.456623 -278.020728 
L 97.486832 -278.060168 
L 97.501936 -278.099608 
L 97.509488 -278.139048 
L 97.532145 -278.178488 
L 97.539697 -278.217928 
L 97.585011 -278.257368 
L 97.607667 -278.296808 
L 97.615219 -278.336248 
L 97.630324 -278.375687 
L 97.660533 -278.415127 
L 97.683189 -278.454567 
L 97.781368 -278.494007 
L 97.78892 -278.533447 
L 97.811577 -278.612327 
L 97.849338 -278.651767 
L 97.871995 -278.730646 
L 97.894651 -278.770086 
L 97.917308 -278.809526 
L 97.92486 -278.888406 
L 97.932412 -278.927846 
L 97.939965 -278.967286 
L 97.977726 -279.006726 
L 97.985278 -279.046166 
L 98.007935 -279.085605 
L 98.015487 -279.125045 
L 98.030591 -279.203925 
L 98.0608 -279.243365 
L 98.068352 -279.282805 
L 98.098561 -279.322245 
L 98.136322 -279.361685 
L 98.143874 -279.401125 
L 98.151427 -279.440564 
L 98.19674 -279.480004 
L 98.204292 -279.519444 
L 98.287366 -279.677204 
L 98.302471 -279.756084 
L 98.310023 -279.795523 
L 98.317575 -279.834963 
L 98.325128 -279.874403 
L 98.362889 -279.953283 
L 98.370441 -279.992723 
L 98.430859 -280.032163 
L 98.445963 -280.071603 
L 98.453515 -280.111043 
L 98.461067 -280.150482 
L 98.46862 -280.189922 
L 98.506381 -280.229362 
L 98.521485 -280.268802 
L 98.551694 -280.387122 
L 98.559246 -280.426562 
L 98.612112 -280.544881 
L 98.619664 -280.584321 
L 98.627216 -280.663201 
L 98.64232 -280.702641 
L 98.664977 -280.742081 
L 98.680082 -280.8604 
L 98.695186 -280.89984 
L 98.732947 -280.93928 
L 98.793365 -280.97872 
L 98.816021 -281.01816 
L 98.84623 -281.0576 
L 98.876439 -281.09704 
L 98.9142 -281.17592 
L 98.921752 -281.254799 
L 98.929305 -281.333679 
L 98.936857 -281.373119 
L 98.944409 -281.412559 
L 98.974618 -281.451999 
L 99.027483 -281.491439 
L 99.042588 -281.609758 
L 99.05014 -281.649198 
L 99.057692 -281.688638 
L 99.080349 -281.728078 
L 99.087901 -281.767518 
L 99.103005 -281.806958 
L 99.148319 -281.885838 
L 99.163423 -281.925278 
L 99.178528 -281.964717 
L 99.201184 -282.004157 
L 99.208736 -282.043597 
L 99.223841 -282.083037 
L 99.238945 -282.122477 
L 99.261602 -282.161917 
L 99.276706 -282.201357 
L 99.284259 -282.240797 
L 99.291811 -282.319676 
L 99.306915 -282.359116 
L 99.32202 -282.398556 
L 99.337124 -282.437996 
L 99.352229 -282.477436 
L 99.367333 -282.516876 
L 99.374885 -282.556316 
L 99.382437 -282.595756 
L 99.420198 -282.635196 
L 99.435303 -282.714075 
L 99.450407 -282.753515 
L 99.45796 -282.792955 
L 99.533482 -282.832395 
L 99.541034 -282.871835 
L 99.563691 -282.950715 
L 99.586347 -282.990155 
L 99.624108 -283.029594 
L 99.639213 -283.147914 
L 99.661869 -283.226794 
L 99.669421 -283.305674 
L 99.692078 -283.423993 
L 99.722287 -283.463433 
L 99.729839 -283.581753 
L 99.737391 -283.621193 
L 99.752496 -283.660633 
L 99.775152 -283.739512 
L 99.790257 -283.778952 
L 99.797809 -283.818392 
L 99.873331 -283.897272 
L 99.911092 -283.936712 
L 99.956406 -283.976152 
L 100.047032 -284.015592 
L 100.069689 -284.094471 
L 100.077241 -284.133911 
L 100.130106 -284.173351 
L 100.160315 -284.252231 
L 100.190524 -284.291671 
L 100.198076 -284.331111 
L 100.228285 -284.370551 
L 100.250942 -284.409991 
L 100.296255 -284.44943 
L 100.37933 -284.48887 
L 100.439747 -284.52831 
L 100.454852 -284.56775 
L 100.469956 -284.64663 
L 100.492613 -284.68607 
L 100.568135 -284.72551 
L 100.681418 -284.76495 
L 100.68897 -284.804389 
L 100.802253 -284.843829 
L 100.840015 -284.922709 
L 100.900432 -284.962149 
L 100.968402 -285.041029 
L 100.998611 -285.080469 
L 101.006163 -285.159348 
L 101.081685 -285.198788 
L 101.119446 -285.317108 
L 101.126999 -285.356548 
L 101.134551 -285.395988 
L 101.149655 -285.435428 
L 101.157208 -285.474868 
L 101.172312 -285.514307 
L 101.179864 -285.553747 
L 101.194969 -285.593187 
L 101.217625 -285.672067 
L 101.255386 -285.711507 
L 101.262938 -285.790387 
L 101.293147 -285.829827 
L 101.315804 -285.869266 
L 101.338461 -285.908706 
L 101.353565 -285.948146 
L 101.444192 -285.987586 
L 101.534818 -286.027026 
L 101.54237 -286.066466 
L 101.549923 -286.105906 
L 101.685862 -286.145346 
L 101.723624 -286.184786 
L 101.761385 -286.224225 
L 101.768937 -286.263665 
L 101.791593 -286.342545 
L 101.844459 -286.381985 
L 101.867116 -286.421425 
L 101.912429 -286.500305 
L 101.919981 -286.539745 
L 101.980399 -286.618624 
L 101.995503 -286.658064 
L 102.048369 -286.697504 
L 102.071025 -286.736944 
L 102.206965 -286.776384 
L 102.312696 -286.815824 
L 102.327801 -286.855264 
L 102.441084 -286.894704 
L 102.456188 -286.934144 
L 102.471293 -286.973583 
L 102.478845 -287.013023 
L 102.516606 -287.052463 
L 102.546815 -287.131343 
L 102.577024 -287.170783 
L 102.592128 -287.210223 
L 102.607232 -287.249663 
L 102.818694 -287.328542 
L 102.93953 -287.407422 
L 102.999948 -287.446862 
L 103.0075 -287.486302 
L 103.022604 -287.525742 
L 103.037709 -287.565182 
L 103.060365 -287.604622 
L 103.083022 -287.644062 
L 103.098126 -287.683501 
L 103.181201 -287.762381 
L 103.21141 -287.801821 
L 103.226514 -287.841261 
L 103.279379 -287.880701 
L 103.362454 -287.920141 
L 103.581468 -287.959581 
L 103.611677 -287.999021 
L 103.634333 -288.03846 
L 103.641886 -288.0779 
L 103.649438 -288.11734 
L 103.65699 -288.15678 
L 103.672095 -288.19622 
L 103.702303 -288.23566 
L 103.755169 -288.2751 
L 103.785378 -288.31454 
L 103.808034 -288.35398 
L 103.838243 -288.393419 
L 103.868452 -288.432859 
L 103.989287 -288.511739 
L 104.011944 -288.551179 
L 104.125227 -288.590619 
L 104.253615 -288.708939 
L 104.268719 -288.827258 
L 104.283824 -288.866698 
L 104.382003 -288.906138 
L 104.457525 -288.945578 
L 104.487734 -288.985018 
L 104.525495 -289.024458 
L 104.593465 -289.063898 
L 104.616121 -289.103337 
L 104.638778 -289.142777 
L 104.653882 -289.182217 
L 104.668987 -289.221657 
L 104.752061 -289.300537 
L 104.835135 -289.339977 
L 104.857792 -289.379417 
L 104.872896 -289.418857 
L 104.895553 -289.458296 
L 105.05415 -289.537176 
L 105.099463 -289.576616 
L 105.122119 -289.616056 
L 105.137224 -289.694936 
L 105.167433 -289.734376 
L 105.174985 -289.773816 
L 105.235403 -289.813255 
L 105.5677 -289.852695 
L 105.582805 -289.892135 
L 105.597909 -289.931575 
L 105.643222 -289.971015 
L 105.696088 -290.010455 
L 105.733849 -290.049895 
L 105.816923 -290.089335 
L 105.832028 -290.128775 
L 105.83958 -290.168214 
L 105.869789 -290.207654 
L 105.899997 -290.247094 
L 105.952863 -290.286534 
L 106.156773 -290.325974 
L 106.186982 -290.365414 
L 106.194534 -290.404854 
L 106.4211 -290.444294 
L 106.609906 -290.483734 
L 106.647667 -290.562613 
L 106.708084 -290.602053 
L 106.745845 -290.641493 
L 106.82892 -290.680933 
L 106.904442 -290.720373 
L 106.927098 -290.759813 
L 106.942203 -290.799253 
L 106.995068 -290.878132 
L 107.13856 -290.957012 
L 107.236739 -290.996452 
L 107.350022 -291.035892 
L 107.433097 -291.075332 
L 107.531276 -291.114772 
L 107.553932 -291.154212 
L 107.644559 -291.193652 
L 107.704976 -291.233091 
L 107.735185 -291.272531 
L 107.908886 -291.311971 
L 107.991961 -291.351411 
L 108.029722 -291.390851 
L 108.05993 -291.430291 
L 108.158109 -291.469731 
L 108.218527 -291.509171 
L 108.226079 -291.548611 
L 108.301601 -291.58805 
L 108.324258 -291.62749 
L 108.422437 -291.66693 
L 108.490407 -291.74581 
L 108.649003 -291.78525 
L 108.694316 -291.82469 
L 108.845361 -291.86413 
L 108.87557 -291.90357 
L 108.935987 -291.94301 
L 108.996405 -291.982449 
L 109.019062 -292.021889 
L 109.132345 -292.061329 
L 109.155001 -292.100769 
L 109.200315 -292.140209 
L 109.487299 -292.179649 
L 109.52506 -292.219089 
L 109.570373 -292.337408 
L 109.812044 -292.376848 
L 109.834701 -292.416288 
L 109.857357 -292.495168 
L 109.932879 -292.534608 
L 109.963088 -292.574048 
L 110.17455 -292.613488 
L 110.234968 -292.652928 
L 110.31049 -292.731807 
L 110.355803 -292.771247 
L 110.469087 -292.810687 
L 110.521952 -292.850127 
L 110.642787 -292.889567 
L 110.703205 -292.929007 
L 110.763623 -292.968447 
L 110.771175 -293.007887 
L 111.23186 -293.047326 
L 111.277173 -293.086766 
L 111.473531 -293.126206 
L 111.481083 -293.165646 
L 111.496188 -293.205086 
L 111.586814 -293.244526 
L 111.700097 -293.283966 
L 111.790724 -293.323406 
L 111.941768 -293.362846 
L 111.979529 -293.402285 
L 112.047499 -293.441725 
L 112.15323 -293.520605 
L 112.236304 -293.560045 
L 112.470423 -293.599485 
L 112.780064 -293.638925 
L 112.863138 -293.678365 
L 112.916004 -293.717805 
L 112.976421 -293.757244 
L 113.354032 -293.836124 
L 113.406897 -293.875564 
L 113.444659 -293.915004 
L 113.844926 -293.954444 
L 113.958209 -293.993884 
L 113.973313 -294.033324 
L 114.139462 -294.072764 
L 114.328268 -294.112203 
L 114.71343 -294.151643 
L 114.736087 -294.191083 
L 114.894684 -294.269963 
L 114.98531 -294.309403 
L 115.015519 -294.348843 
L 115.234533 -294.388283 
L 115.317607 -294.427723 
L 115.408234 -294.467162 
L 115.604592 -294.546042 
L 115.665009 -294.585482 
L 115.695218 -294.624922 
L 115.831158 -294.664362 
L 115.846262 -294.703802 
L 115.914232 -294.743242 
L 116.193664 -294.782682 
L 116.473096 -294.822121 
L 116.654349 -294.861561 
L 116.699662 -294.901001 
L 116.994199 -294.940441 
L 117.039512 -294.979881 
L 117.175452 -295.058761 
L 117.394466 -295.098201 
L 117.704107 -295.137641 
L 117.794733 -295.17708 
L 118.22521 -295.21652 
L 118.270523 -295.25596 
L 118.451776 -295.33484 
L 119.063505 -295.37428 
L 119.086162 -295.41372 
L 119.093714 -295.4926 
L 119.418459 -295.532039 
L 119.765861 -295.571479 
L 120.173681 -295.610919 
L 120.279412 -295.650359 
L 120.30962 -295.689799 
L 120.521082 -295.729239 
L 120.543739 -295.768679 
L 120.823171 -295.808119 
L 121.079946 -295.847559 
L 121.170573 -295.886998 
L 121.200782 -295.926438 
L 121.36693 -295.965878 
L 121.616153 -296.005318 
L 121.653914 -296.044758 
L 121.676571 -296.084198 
L 121.767198 -296.123638 
L 122.061734 -296.163078 
L 122.250539 -296.202518 
L 122.499762 -296.241957 
L 122.884925 -296.281397 
L 122.983104 -296.320837 
L 123.406028 -296.360277 
L 123.662803 -296.399717 
L 123.88937 -296.439157 
L 124.108384 -296.478597 
L 124.153697 -296.518037 
L 124.26698 -296.557477 
L 124.53886 -296.596916 
L 124.795635 -296.636356 
L 125.105276 -296.675796 
L 125.248768 -296.715236 
L 125.346947 -296.754676 
L 125.475334 -296.794116 
L 125.558409 -296.833556 
L 126.207899 -296.872996 
L 126.72145 -296.912436 
L 126.970673 -296.951875 
L 127.182135 -296.991315 
L 127.748551 -297.030755 
L 128.02043 -297.070195 
L 128.148818 -297.109635 
L 128.624607 -297.149075 
L 128.987114 -297.227955 
L 129.070188 -297.267395 
L 129.326963 -297.306835 
L 129.621499 -297.346274 
L 129.659261 -297.385714 
L 129.870722 -297.425154 
L 130.218124 -297.464594 
L 130.286094 -297.504034 
L 130.40693 -297.543474 
L 130.459795 -297.582914 
L 130.527765 -297.622354 
L 130.807197 -297.661794 
L 131.237673 -297.701233 
L 131.282986 -297.740673 
L 131.751224 -297.780113 
L 131.947581 -297.819553 
L 132.189252 -297.858993 
L 132.69525 -297.898433 
L 132.748116 -297.937873 
L 133.0351 -297.977313 
L 133.374949 -298.016753 
L 133.382502 -298.056192 
L 133.578859 -298.095632 
L 133.699695 -298.135072 
L 133.873396 -298.174512 
L 133.986679 -298.213952 
L 134.198141 -298.253392 
L 134.976019 -298.292832 
L 135.059093 -298.332272 
L 136.237238 -298.371712 
L 136.290104 -298.411151 
L 136.577088 -298.450591 
L 137.030221 -298.490031 
L 137.188817 -298.529471 
L 137.785442 -298.568911 
L 137.944039 -298.608351 
L 138.268784 -298.647791 
L 139.190154 -298.687231 
L 139.250571 -298.726671 
L 139.514899 -298.76611 
L 139.643286 -298.80555 
L 140.209702 -298.84499 
L 140.942267 -298.88443 
L 140.957372 -298.92387 
L 141.455818 -298.96331 
L 142.437605 -299.00275 
L 142.852977 -299.04219 
L 143.064439 -299.08163 
L 143.1022 -299.121069 
L 143.155066 -299.160509 
L 143.162618 -299.199949 
L 143.570437 -299.239389 
L 144.673061 -299.278829 
L 144.688165 -299.318269 
L 144.990254 -299.357709 
L 145.08088 -299.397149 
L 145.473595 -299.436589 
L 145.790788 -299.476028 
L 145.904071 -299.515468 
L 146.123086 -299.554908 
L 146.530905 -299.594348 
L 147.112425 -299.633788 
L 147.301231 -299.673228 
L 147.799677 -299.712668 
L 147.897856 -299.752108 
L 148.056452 -299.791548 
L 148.486928 -299.830987 
L 149.143971 -299.870427 
L 149.385642 -299.909867 
L 149.801013 -299.949307 
L 150.171072 -299.988747 
L 150.458056 -300.028187 
L 151.243486 -300.067627 
L 151.356769 -300.107067 
L 151.673962 -300.146507 
L 151.726828 -300.185946 
L 151.877872 -300.225386 
L 152.376318 -300.264826 
L 153.003152 -300.304266 
L 154.211506 -300.343706 
L 154.7024 -300.383146 
L 155.178189 -300.422586 
L 155.193294 -300.462026 
L 155.457621 -300.501466 
L 156.454513 -300.540905 
L 156.711289 -300.580345 
L 157.360779 -300.619785 
L 157.617554 -300.659225 
L 158.380328 -300.698665 
L 158.486059 -300.738105 
L 158.720177 -300.777545 
L 160.985841 -300.816985 
L 161.174647 -300.856425 
L 161.552257 -300.895864 
L 161.793928 -300.935304 
L 162.352792 -300.974744 
L 164.648665 -301.014184 
L 165.033828 -301.053624 
L 165.992959 -301.093064 
L 166.81615 -301.132504 
L 167.337253 -301.171944 
L 168.772173 -301.211384 
L 169.036501 -301.250823 
L 170.237303 -301.290263 
L 170.426108 -301.329703 
L 174.217319 -301.369143 
L 175.17645 -301.408583 
L 175.712657 -301.448023 
L 176.57361 -301.487463 
L 177.15513 -301.526903 
L 177.963217 -301.566343 
L 178.016082 -301.605782 
L 178.982766 -301.645222 
L 179.57939 -301.684662 
L 180.274194 -301.724102 
L 180.553626 -301.763542 
L 181.104938 -301.802982 
L 181.845054 -301.842422 
L 181.860159 -301.881862 
L 182.290635 -301.921302 
L 182.804186 -301.960741 
L 184.156032 -302.000181 
L 185.809966 -302.039621 
L 186.897485 -302.079061 
L 186.927694 -302.118501 
L 186.950351 -302.157941 
L 188.392823 -302.197381 
L 189.669147 -302.236821 
L 190.205355 -302.276261 
L 190.212907 -302.315701 
L 190.522548 -302.35514 
L 190.990785 -302.39458 
L 191.345739 -302.43402 
L 192.448362 -302.47346 
L 193.075196 -302.5129 
L 194.714026 -302.55234 
L 195.212472 -302.59178 
L 195.522113 -302.63122 
L 197.274226 -302.67066 
L 199.071653 -302.710099 
L 200.921945 -302.749539 
L 200.974811 -302.788979 
L 204.207158 -302.828419 
L 205.981928 -302.867859 
L 209.100992 -302.907299 
L 209.289798 -302.946739 
L 209.705169 -302.986179 
L 209.999706 -303.025619 
L 217.846455 -303.065058 
L 219.251167 -303.104498 
L 220.595461 -303.143938 
L 220.957967 -303.183378 
L 221.388443 -303.222818 
L 225.360907 -303.262258 
L 226.025502 -303.301698 
L 226.531501 -303.341138 
L 228.457315 -303.380578 
L 229.627908 -303.420017 
L 230.609696 -303.459457 
L 232.074825 -303.498897 
L 232.67145 -303.538337 
L 234.045953 -303.577777 
L 234.076162 -303.617217 
L 235.292068 -303.656657 
L 241.590614 -303.696097 
L 243.229444 -303.735537 
L 248.002443 -303.774976 
L 250.92515 -303.814416 
L 251.446252 -303.853856 
L 257.140621 -303.893296 
L 263.975374 -303.932736 
L 264.073553 -303.972176 
L 275.658648 -304.011616 
L 276.096676 -304.051056 
L 279.540486 -304.090496 
L 280.635557 -304.129935 
L 280.650661 -304.169375 
L 284.902557 -304.208815 
L 301.457009 -304.248255 
L 315.594752 -304.287695 
L 362.388266 -304.327135 
L 378.036452 -304.366575 
L 453.626555 -304.406015 
L 453.626555 -304.445455 
L 453.626555 -304.445455 
L 378.036452 -304.406015 
L 362.388266 -304.366575 
L 315.594752 -304.327135 
L 301.457009 -304.287695 
L 284.902557 -304.248255 
L 280.650661 -304.208815 
L 280.635557 -304.169375 
L 279.540486 -304.129935 
L 276.096676 -304.090496 
L 275.658648 -304.051056 
L 264.073553 -304.011616 
L 263.975374 -303.972176 
L 257.140621 -303.932736 
L 251.446252 -303.893296 
L 250.92515 -303.853856 
L 248.002443 -303.814416 
L 243.229444 -303.774976 
L 241.590614 -303.735537 
L 235.292068 -303.696097 
L 234.076162 -303.656657 
L 234.045953 -303.617217 
L 232.67145 -303.577777 
L 232.074825 -303.538337 
L 230.609696 -303.498897 
L 229.627908 -303.459457 
L 228.457315 -303.420017 
L 226.531501 -303.380578 
L 226.025502 -303.341138 
L 225.360907 -303.301698 
L 221.388443 -303.262258 
L 220.957967 -303.222818 
L 220.595461 -303.183378 
L 219.251167 -303.143938 
L 217.846455 -303.104498 
L 209.999706 -303.065058 
L 209.705169 -303.025619 
L 209.289798 -302.986179 
L 209.100992 -302.946739 
L 205.981928 -302.907299 
L 204.207158 -302.867859 
L 200.974811 -302.828419 
L 200.921945 -302.788979 
L 199.071653 -302.749539 
L 197.274226 -302.710099 
L 195.522113 -302.67066 
L 195.212472 -302.63122 
L 194.714026 -302.59178 
L 193.075196 -302.55234 
L 192.448362 -302.5129 
L 191.345739 -302.47346 
L 190.990785 -302.43402 
L 190.522548 -302.39458 
L 190.212907 -302.35514 
L 190.205355 -302.315701 
L 189.669147 -302.276261 
L 188.392823 -302.236821 
L 186.950351 -302.197381 
L 186.927694 -302.157941 
L 186.897485 -302.118501 
L 185.809966 -302.079061 
L 184.156032 -302.039621 
L 182.804186 -302.000181 
L 182.290635 -301.960741 
L 181.860159 -301.921302 
L 181.845054 -301.881862 
L 181.104938 -301.842422 
L 180.553626 -301.802982 
L 180.274194 -301.763542 
L 179.57939 -301.724102 
L 178.982766 -301.684662 
L 178.016082 -301.645222 
L 177.963217 -301.605782 
L 177.15513 -301.566343 
L 176.57361 -301.526903 
L 175.712657 -301.487463 
L 175.17645 -301.448023 
L 174.217319 -301.408583 
L 170.426108 -301.369143 
L 170.237303 -301.329703 
L 169.036501 -301.290263 
L 168.772173 -301.250823 
L 167.337253 -301.211384 
L 166.81615 -301.171944 
L 165.992959 -301.132504 
L 165.033828 -301.093064 
L 164.648665 -301.053624 
L 162.352792 -301.014184 
L 161.793928 -300.974744 
L 161.552257 -300.935304 
L 161.174647 -300.895864 
L 160.985841 -300.856425 
L 158.720177 -300.816985 
L 158.486059 -300.777545 
L 158.380328 -300.738105 
L 157.617554 -300.698665 
L 157.360779 -300.659225 
L 156.711289 -300.619785 
L 156.454513 -300.580345 
L 155.457621 -300.540905 
L 155.193294 -300.501466 
L 155.178189 -300.462026 
L 154.7024 -300.422586 
L 154.211506 -300.383146 
L 153.003152 -300.343706 
L 152.376318 -300.304266 
L 151.877872 -300.264826 
L 151.726828 -300.225386 
L 151.673962 -300.185946 
L 151.356769 -300.146507 
L 151.243486 -300.107067 
L 150.458056 -300.067627 
L 150.171072 -300.028187 
L 149.801013 -299.988747 
L 149.385642 -299.949307 
L 149.143971 -299.909867 
L 148.486928 -299.870427 
L 148.056452 -299.830987 
L 147.897856 -299.791548 
L 147.799677 -299.752108 
L 147.301231 -299.712668 
L 147.112425 -299.673228 
L 146.530905 -299.633788 
L 146.123086 -299.594348 
L 145.904071 -299.554908 
L 145.790788 -299.515468 
L 145.473595 -299.476028 
L 145.08088 -299.436589 
L 144.990254 -299.397149 
L 144.688165 -299.357709 
L 144.673061 -299.318269 
L 143.570437 -299.278829 
L 143.162618 -299.239389 
L 143.155066 -299.199949 
L 143.1022 -299.160509 
L 143.064439 -299.121069 
L 142.852977 -299.08163 
L 142.437605 -299.04219 
L 141.455818 -299.00275 
L 140.957372 -298.96331 
L 140.942267 -298.92387 
L 140.209702 -298.88443 
L 139.643286 -298.84499 
L 139.514899 -298.80555 
L 139.250571 -298.76611 
L 139.190154 -298.726671 
L 138.268784 -298.687231 
L 137.944039 -298.647791 
L 137.785442 -298.608351 
L 137.188817 -298.568911 
L 137.030221 -298.529471 
L 136.577088 -298.490031 
L 136.290104 -298.450591 
L 136.237238 -298.411151 
L 135.059093 -298.371712 
L 134.976019 -298.332272 
L 134.198141 -298.292832 
L 133.986679 -298.253392 
L 133.873396 -298.213952 
L 133.699695 -298.174512 
L 133.578859 -298.135072 
L 133.382502 -298.095632 
L 133.374949 -298.056192 
L 133.0351 -298.016753 
L 132.748116 -297.977313 
L 132.69525 -297.937873 
L 132.189252 -297.898433 
L 131.947581 -297.858993 
L 131.751224 -297.819553 
L 131.282986 -297.780113 
L 131.237673 -297.740673 
L 130.807197 -297.701233 
L 130.527765 -297.661794 
L 130.459795 -297.622354 
L 130.40693 -297.582914 
L 130.286094 -297.543474 
L 130.218124 -297.504034 
L 129.870722 -297.464594 
L 129.659261 -297.425154 
L 129.621499 -297.385714 
L 129.326963 -297.346274 
L 129.070188 -297.306835 
L 128.987114 -297.267395 
L 128.624607 -297.227955 
L 128.148818 -297.149075 
L 128.02043 -297.109635 
L 127.748551 -297.070195 
L 127.182135 -297.030755 
L 126.970673 -296.991315 
L 126.72145 -296.951875 
L 126.207899 -296.912436 
L 125.558409 -296.872996 
L 125.475334 -296.833556 
L 125.346947 -296.794116 
L 125.248768 -296.754676 
L 125.105276 -296.715236 
L 124.795635 -296.675796 
L 124.53886 -296.636356 
L 124.26698 -296.596916 
L 124.153697 -296.557477 
L 124.108384 -296.518037 
L 123.88937 -296.478597 
L 123.662803 -296.439157 
L 123.406028 -296.399717 
L 122.983104 -296.360277 
L 122.884925 -296.320837 
L 122.499762 -296.281397 
L 122.250539 -296.241957 
L 122.061734 -296.202518 
L 121.767198 -296.163078 
L 121.676571 -296.123638 
L 121.653914 -296.084198 
L 121.616153 -296.044758 
L 121.36693 -296.005318 
L 121.200782 -295.965878 
L 121.170573 -295.926438 
L 121.079946 -295.886998 
L 120.823171 -295.847559 
L 120.543739 -295.808119 
L 120.521082 -295.768679 
L 120.30962 -295.729239 
L 120.279412 -295.689799 
L 120.173681 -295.650359 
L 119.765861 -295.610919 
L 119.418459 -295.571479 
L 119.093714 -295.532039 
L 119.086162 -295.4926 
L 119.063505 -295.41372 
L 118.451776 -295.37428 
L 118.270523 -295.33484 
L 118.22521 -295.25596 
L 117.794733 -295.21652 
L 117.704107 -295.17708 
L 117.394466 -295.137641 
L 117.175452 -295.098201 
L 117.039512 -295.058761 
L 116.994199 -294.979881 
L 116.699662 -294.940441 
L 116.654349 -294.901001 
L 116.473096 -294.861561 
L 116.193664 -294.822121 
L 115.914232 -294.782682 
L 115.846262 -294.743242 
L 115.831158 -294.703802 
L 115.695218 -294.664362 
L 115.665009 -294.624922 
L 115.604592 -294.585482 
L 115.408234 -294.546042 
L 115.317607 -294.467162 
L 115.234533 -294.427723 
L 115.015519 -294.388283 
L 114.98531 -294.348843 
L 114.894684 -294.309403 
L 114.736087 -294.269963 
L 114.71343 -294.191083 
L 114.328268 -294.151643 
L 114.139462 -294.112203 
L 113.973313 -294.072764 
L 113.958209 -294.033324 
L 113.844926 -293.993884 
L 113.444659 -293.954444 
L 113.406897 -293.915004 
L 113.354032 -293.875564 
L 112.976421 -293.836124 
L 112.916004 -293.757244 
L 112.863138 -293.717805 
L 112.780064 -293.678365 
L 112.470423 -293.638925 
L 112.236304 -293.599485 
L 112.15323 -293.560045 
L 112.047499 -293.520605 
L 111.979529 -293.441725 
L 111.941768 -293.402285 
L 111.790724 -293.362846 
L 111.700097 -293.323406 
L 111.586814 -293.283966 
L 111.496188 -293.244526 
L 111.481083 -293.205086 
L 111.473531 -293.165646 
L 111.277173 -293.126206 
L 111.23186 -293.086766 
L 110.771175 -293.047326 
L 110.763623 -293.007887 
L 110.703205 -292.968447 
L 110.642787 -292.929007 
L 110.521952 -292.889567 
L 110.469087 -292.850127 
L 110.355803 -292.810687 
L 110.31049 -292.771247 
L 110.234968 -292.731807 
L 110.17455 -292.652928 
L 109.963088 -292.613488 
L 109.932879 -292.574048 
L 109.857357 -292.534608 
L 109.834701 -292.495168 
L 109.812044 -292.416288 
L 109.570373 -292.376848 
L 109.52506 -292.337408 
L 109.487299 -292.219089 
L 109.200315 -292.179649 
L 109.155001 -292.140209 
L 109.132345 -292.100769 
L 109.019062 -292.061329 
L 108.996405 -292.021889 
L 108.935987 -291.982449 
L 108.87557 -291.94301 
L 108.845361 -291.90357 
L 108.694316 -291.86413 
L 108.649003 -291.82469 
L 108.490407 -291.78525 
L 108.422437 -291.74581 
L 108.324258 -291.66693 
L 108.301601 -291.62749 
L 108.226079 -291.58805 
L 108.218527 -291.548611 
L 108.158109 -291.509171 
L 108.05993 -291.469731 
L 108.029722 -291.430291 
L 107.991961 -291.390851 
L 107.908886 -291.351411 
L 107.735185 -291.311971 
L 107.704976 -291.272531 
L 107.644559 -291.233091 
L 107.553932 -291.193652 
L 107.531276 -291.154212 
L 107.433097 -291.114772 
L 107.350022 -291.075332 
L 107.236739 -291.035892 
L 107.13856 -290.996452 
L 106.995068 -290.957012 
L 106.942203 -290.878132 
L 106.927098 -290.799253 
L 106.904442 -290.759813 
L 106.82892 -290.720373 
L 106.745845 -290.680933 
L 106.708084 -290.641493 
L 106.647667 -290.602053 
L 106.609906 -290.562613 
L 106.4211 -290.483734 
L 106.194534 -290.444294 
L 106.186982 -290.404854 
L 106.156773 -290.365414 
L 105.952863 -290.325974 
L 105.899997 -290.286534 
L 105.869789 -290.247094 
L 105.83958 -290.207654 
L 105.832028 -290.168214 
L 105.816923 -290.128775 
L 105.733849 -290.089335 
L 105.696088 -290.049895 
L 105.643222 -290.010455 
L 105.597909 -289.971015 
L 105.582805 -289.931575 
L 105.5677 -289.892135 
L 105.235403 -289.852695 
L 105.174985 -289.813255 
L 105.167433 -289.773816 
L 105.137224 -289.734376 
L 105.122119 -289.694936 
L 105.099463 -289.616056 
L 105.05415 -289.576616 
L 104.895553 -289.537176 
L 104.872896 -289.458296 
L 104.857792 -289.418857 
L 104.835135 -289.379417 
L 104.752061 -289.339977 
L 104.668987 -289.300537 
L 104.653882 -289.221657 
L 104.638778 -289.182217 
L 104.616121 -289.142777 
L 104.593465 -289.103337 
L 104.525495 -289.063898 
L 104.487734 -289.024458 
L 104.457525 -288.985018 
L 104.382003 -288.945578 
L 104.283824 -288.906138 
L 104.268719 -288.866698 
L 104.253615 -288.827258 
L 104.125227 -288.708939 
L 104.011944 -288.590619 
L 103.989287 -288.551179 
L 103.868452 -288.511739 
L 103.838243 -288.432859 
L 103.808034 -288.393419 
L 103.785378 -288.35398 
L 103.755169 -288.31454 
L 103.702303 -288.2751 
L 103.672095 -288.23566 
L 103.65699 -288.19622 
L 103.649438 -288.15678 
L 103.641886 -288.11734 
L 103.634333 -288.0779 
L 103.611677 -288.03846 
L 103.581468 -287.999021 
L 103.362454 -287.959581 
L 103.279379 -287.920141 
L 103.226514 -287.880701 
L 103.21141 -287.841261 
L 103.181201 -287.801821 
L 103.098126 -287.762381 
L 103.083022 -287.683501 
L 103.060365 -287.644062 
L 103.037709 -287.604622 
L 103.022604 -287.565182 
L 103.0075 -287.525742 
L 102.999948 -287.486302 
L 102.93953 -287.446862 
L 102.818694 -287.407422 
L 102.607232 -287.328542 
L 102.592128 -287.249663 
L 102.577024 -287.210223 
L 102.546815 -287.170783 
L 102.516606 -287.131343 
L 102.478845 -287.052463 
L 102.471293 -287.013023 
L 102.456188 -286.973583 
L 102.441084 -286.934144 
L 102.327801 -286.894704 
L 102.312696 -286.855264 
L 102.206965 -286.815824 
L 102.071025 -286.776384 
L 102.048369 -286.736944 
L 101.995503 -286.697504 
L 101.980399 -286.658064 
L 101.919981 -286.618624 
L 101.912429 -286.539745 
L 101.867116 -286.500305 
L 101.844459 -286.421425 
L 101.791593 -286.381985 
L 101.768937 -286.342545 
L 101.761385 -286.263665 
L 101.723624 -286.224225 
L 101.685862 -286.184786 
L 101.549923 -286.145346 
L 101.54237 -286.105906 
L 101.534818 -286.066466 
L 101.444192 -286.027026 
L 101.353565 -285.987586 
L 101.338461 -285.948146 
L 101.315804 -285.908706 
L 101.293147 -285.869266 
L 101.262938 -285.829827 
L 101.255386 -285.790387 
L 101.217625 -285.711507 
L 101.194969 -285.672067 
L 101.179864 -285.593187 
L 101.172312 -285.553747 
L 101.157208 -285.514307 
L 101.149655 -285.474868 
L 101.134551 -285.435428 
L 101.126999 -285.395988 
L 101.119446 -285.356548 
L 101.081685 -285.317108 
L 101.006163 -285.198788 
L 100.998611 -285.159348 
L 100.968402 -285.080469 
L 100.900432 -285.041029 
L 100.840015 -284.962149 
L 100.802253 -284.922709 
L 100.68897 -284.843829 
L 100.681418 -284.804389 
L 100.568135 -284.76495 
L 100.492613 -284.72551 
L 100.469956 -284.68607 
L 100.454852 -284.64663 
L 100.439747 -284.56775 
L 100.37933 -284.52831 
L 100.296255 -284.48887 
L 100.250942 -284.44943 
L 100.228285 -284.409991 
L 100.198076 -284.370551 
L 100.190524 -284.331111 
L 100.160315 -284.291671 
L 100.130106 -284.252231 
L 100.077241 -284.173351 
L 100.069689 -284.133911 
L 100.047032 -284.094471 
L 99.956406 -284.015592 
L 99.911092 -283.976152 
L 99.873331 -283.936712 
L 99.797809 -283.897272 
L 99.790257 -283.818392 
L 99.775152 -283.778952 
L 99.752496 -283.739512 
L 99.737391 -283.660633 
L 99.729839 -283.621193 
L 99.722287 -283.581753 
L 99.692078 -283.463433 
L 99.669421 -283.423993 
L 99.661869 -283.305674 
L 99.639213 -283.226794 
L 99.624108 -283.147914 
L 99.586347 -283.029594 
L 99.563691 -282.990155 
L 99.541034 -282.950715 
L 99.533482 -282.871835 
L 99.45796 -282.832395 
L 99.450407 -282.792955 
L 99.435303 -282.753515 
L 99.420198 -282.714075 
L 99.382437 -282.635196 
L 99.374885 -282.595756 
L 99.367333 -282.556316 
L 99.352229 -282.516876 
L 99.337124 -282.477436 
L 99.32202 -282.437996 
L 99.306915 -282.398556 
L 99.291811 -282.359116 
L 99.284259 -282.319676 
L 99.276706 -282.240797 
L 99.261602 -282.201357 
L 99.238945 -282.161917 
L 99.223841 -282.122477 
L 99.208736 -282.083037 
L 99.201184 -282.043597 
L 99.178528 -282.004157 
L 99.163423 -281.964717 
L 99.148319 -281.925278 
L 99.103005 -281.885838 
L 99.087901 -281.806958 
L 99.080349 -281.767518 
L 99.057692 -281.728078 
L 99.05014 -281.688638 
L 99.042588 -281.649198 
L 99.027483 -281.609758 
L 98.974618 -281.491439 
L 98.944409 -281.451999 
L 98.936857 -281.412559 
L 98.929305 -281.373119 
L 98.921752 -281.333679 
L 98.9142 -281.254799 
L 98.876439 -281.17592 
L 98.84623 -281.09704 
L 98.816021 -281.0576 
L 98.793365 -281.01816 
L 98.732947 -280.97872 
L 98.695186 -280.93928 
L 98.680082 -280.89984 
L 98.664977 -280.8604 
L 98.64232 -280.742081 
L 98.627216 -280.702641 
L 98.619664 -280.663201 
L 98.612112 -280.584321 
L 98.559246 -280.544881 
L 98.551694 -280.426562 
L 98.521485 -280.387122 
L 98.506381 -280.268802 
L 98.46862 -280.229362 
L 98.461067 -280.189922 
L 98.453515 -280.150482 
L 98.445963 -280.111043 
L 98.430859 -280.071603 
L 98.370441 -280.032163 
L 98.362889 -279.992723 
L 98.325128 -279.953283 
L 98.317575 -279.874403 
L 98.310023 -279.834963 
L 98.302471 -279.795523 
L 98.287366 -279.756084 
L 98.204292 -279.677204 
L 98.19674 -279.519444 
L 98.151427 -279.480004 
L 98.143874 -279.440564 
L 98.136322 -279.401125 
L 98.098561 -279.361685 
L 98.068352 -279.322245 
L 98.0608 -279.282805 
L 98.030591 -279.243365 
L 98.015487 -279.203925 
L 98.007935 -279.125045 
L 97.985278 -279.085605 
L 97.977726 -279.046166 
L 97.939965 -279.006726 
L 97.932412 -278.967286 
L 97.92486 -278.927846 
L 97.917308 -278.888406 
L 97.894651 -278.809526 
L 97.871995 -278.770086 
L 97.849338 -278.730646 
L 97.811577 -278.651767 
L 97.78892 -278.612327 
L 97.781368 -278.533447 
L 97.683189 -278.494007 
L 97.660533 -278.454567 
L 97.630324 -278.415127 
L 97.615219 -278.375687 
L 97.607667 -278.336248 
L 97.585011 -278.296808 
L 97.539697 -278.257368 
L 97.532145 -278.217928 
L 97.509488 -278.178488 
L 97.501936 -278.139048 
L 97.486832 -278.099608 
L 97.456623 -278.060168 
L 97.449071 -278.020728 
L 97.418862 -277.981289 
L 97.365996 -277.902409 
L 97.34334 -277.823529 
L 97.27537 -277.744649 
L 97.267818 -277.665769 
L 97.222504 -277.62633 
L 97.214952 -277.58689 
L 97.2074 -277.54745 
L 97.199848 -277.50801 
L 97.192296 -277.46857 
L 97.184743 -277.38969 
L 97.162087 -277.35025 
L 97.146982 -277.271371 
L 97.13943 -277.231931 
L 97.116773 -277.153051 
L 97.101669 -277.113611 
L 97.07146 -277.074171 
L 97.048803 -277.034731 
L 97.033699 -276.995291 
L 97.011042 -276.798092 
L 97.00349 -276.758652 
L 96.995938 -276.719212 
L 96.965729 -276.640332 
L 96.943072 -276.561453 
L 96.93552 -276.522013 
L 96.905311 -276.482573 
L 96.897759 -276.443133 
L 96.875103 -276.403693 
L 96.844894 -276.364253 
L 96.822237 -276.245933 
L 96.814685 -276.206494 
L 96.807133 -276.167054 
L 96.784476 -276.127614 
L 96.739163 -276.088174 
L 96.724058 -276.048734 
L 96.716506 -275.969854 
L 96.693849 -275.930414 
L 96.671193 -275.851534 
L 96.648536 -275.772655 
L 96.633432 -275.733215 
L 96.62588 -275.693775 
L 96.603223 -275.654335 
L 96.595671 -275.575455 
L 96.565462 -275.496575 
L 96.55791 -275.457136 
L 96.535253 -275.378256 
L 96.527701 -275.299376 
L 96.520149 -275.181056 
L 96.512596 -275.141616 
L 96.505044 -275.102177 
L 96.497492 -274.944417 
L 96.444626 -274.904977 
L 96.437074 -274.628898 
L 96.399313 -274.589458 
L 96.391761 -274.550018 
L 96.384209 -274.431698 
L 96.376656 -274.392259 
L 96.369104 -274.352819 
L 96.354 -274.313379 
L 96.346448 -274.195059 
L 96.331343 -274.0373 
L 96.316239 -273.99786 
L 96.308687 -273.95842 
L 96.263373 -273.87954 
L 96.248269 -273.76122 
L 96.187851 -273.72178 
L 96.180299 -273.682341 
L 96.172747 -273.642901 
L 96.165195 -273.564021 
L 96.157642 -273.445701 
L 96.15009 -273.406261 
L 96.142538 -273.366821 
L 96.134986 -273.287942 
L 96.112329 -273.248502 
L 96.104777 -273.011862 
L 96.089672 -272.932983 
L 96.08212 -272.814663 
L 96.074568 -272.775223 
L 96.036807 -272.735783 
L 96.029255 -272.696343 
L 96.01415 -272.656903 
L 95.999046 -272.617464 
L 95.983941 -272.578024 
L 95.976389 -272.538584 
L 95.953733 -272.499144 
L 95.94618 -272.459704 
L 95.938628 -272.380824 
L 95.931076 -272.341384 
L 95.923524 -272.301944 
L 95.900867 -272.144185 
L 95.893315 -271.986425 
L 95.855554 -271.789226 
L 95.840449 -271.749786 
L 95.832897 -271.710346 
L 95.825345 -271.631466 
L 95.802688 -271.592026 
L 95.787584 -271.473707 
L 95.780032 -271.355387 
L 95.772479 -271.315947 
L 95.749823 -271.276507 
L 95.734718 -271.197628 
L 95.712062 -271.158188 
L 95.696957 -271.118748 
L 95.689405 -271.079308 
L 95.674301 -271.039868 
L 95.666748 -270.960988 
L 95.659196 -270.803229 
L 95.651644 -270.684909 
L 95.644092 -270.606029 
L 95.63654 -270.527149 
L 95.613883 -270.40883 
L 95.606331 -270.36939 
L 95.591226 -270.21163 
L 95.561017 -270.093311 
L 95.538361 -270.053871 
L 95.523256 -269.817231 
L 95.5006 -269.738352 
L 95.485495 -269.698912 
L 95.470391 -269.659472 
L 95.462839 -269.620032 
L 95.455286 -269.501712 
L 95.447734 -269.462272 
L 95.440182 -269.422832 
L 95.43263 -269.067873 
L 95.425078 -268.949554 
L 95.409973 -268.791794 
L 95.402421 -268.752354 
L 95.394869 -268.712914 
L 95.372212 -268.673475 
L 95.357108 -268.555155 
L 95.342003 -268.279076 
L 95.334451 -268.042436 
L 95.319347 -267.963557 
L 95.311794 -267.805797 
L 95.29669 -267.766357 
L 95.274033 -267.726917 
L 95.258929 -267.648037 
L 95.251377 -267.608598 
L 95.243824 -267.529718 
L 95.22872 -267.450838 
L 95.221168 -267.214199 
L 95.213616 -267.016999 
L 95.206063 -266.89868 
L 95.175855 -266.78036 
L 95.153198 -266.74092 
L 95.130541 -266.70148 
L 95.122989 -266.6226 
L 95.115437 -266.58316 
L 95.100332 -266.543721 
L 95.077676 -266.346521 
L 95.070124 -266.109882 
L 95.055019 -266.031002 
L 95.047467 -265.676043 
L 95.02481 -265.636603 
L 95.017258 -265.597163 
L 95.002154 -265.557723 
L 94.987049 -265.518283 
L 94.979497 -265.478844 
L 94.971945 -265.439404 
L 94.964393 -265.399964 
L 94.911527 -265.360524 
L 94.903975 -265.123884 
L 94.896423 -265.045005 
L 94.881318 -264.926685 
L 94.873766 -264.887245 
L 94.866214 -264.729486 
L 94.858662 -264.611166 
L 94.843557 -264.532286 
L 94.820901 -264.453406 
L 94.813348 -264.216767 
L 94.805796 -264.177327 
L 94.783139 -264.098447 
L 94.768035 -263.782928 
L 94.752931 -263.743488 
L 94.737826 -263.664609 
L 94.730274 -263.546289 
L 94.677408 -263.506849 
L 94.669856 -263.427969 
L 94.662304 -263.15189 
L 94.654752 -263.11245 
L 94.639647 -262.915251 
L 94.632095 -262.875811 
L 94.624543 -262.757491 
L 94.609439 -262.599732 
L 94.601886 -262.205333 
L 94.594334 -262.165893 
L 94.586782 -262.126453 
L 94.57923 -262.087013 
L 94.564125 -261.929253 
L 94.556573 -261.613734 
L 94.549021 -261.377095 
L 94.541469 -261.258775 
L 94.533916 -261.219335 
L 94.51126 -261.061576 
L 94.503708 -260.982696 
L 94.496155 -260.903816 
L 94.481051 -260.588297 
L 94.450842 -260.469978 
L 94.435738 -260.351658 
L 94.428185 -260.193898 
L 94.420633 -260.154458 
L 94.405529 -260.115019 
L 94.390424 -260.036139 
L 94.382872 -259.917819 
L 94.37532 -259.838939 
L 94.367768 -259.799499 
L 94.360216 -259.64174 
L 94.352663 -259.6023 
L 94.345111 -259.089581 
L 94.337559 -259.050141 
L 94.330007 -258.852942 
L 94.322454 -258.734622 
L 94.314902 -258.576863 
L 94.277141 -258.497983 
L 94.262037 -258.419103 
L 94.254485 -258.143024 
L 94.246932 -257.945825 
L 94.231828 -257.788065 
L 94.224276 -257.630305 
L 94.201619 -257.393666 
L 94.194067 -257.314786 
L 94.186515 -257.275346 
L 94.178962 -256.999267 
L 94.17141 -256.959827 
L 94.118545 -256.920387 
L 94.110992 -256.683748 
L 94.10344 -256.13159 
L 94.095888 -255.89495 
L 94.080784 -255.697751 
L 94.073231 -255.579431 
L 94.065679 -255.500551 
L 94.050575 -255.461112 
L 94.043023 -255.421672 
L 94.012814 -255.185032 
L 94.005262 -254.948393 
L 93.997709 -254.751193 
L 93.990157 -254.711754 
L 93.982605 -254.672314 
L 93.975053 -254.632874 
L 93.9675 -254.238475 
L 93.952396 -254.041275 
L 93.944844 -253.962396 
L 93.929739 -253.804636 
L 93.914635 -253.331357 
L 93.907083 -253.134158 
L 93.899531 -252.976398 
L 93.891978 -252.3848 
L 93.876874 -252.26648 
L 93.869322 -252.227041 
L 93.854217 -252.069281 
L 93.846665 -251.753762 
L 93.831561 -251.241043 
L 93.816456 -250.964964 
L 93.808904 -250.491685 
L 93.801352 -250.294486 
L 93.786247 -250.255046 
L 93.771143 -249.584568 
L 93.763591 -249.190169 
L 93.756038 -248.99297 
L 93.740934 -248.91409 
L 93.733382 -248.87465 
L 93.72583 -248.83521 
L 93.718277 -248.71689 
L 93.710725 -248.006972 
L 93.703173 -247.454814 
L 93.695621 -247.060415 
L 93.688069 -247.020975 
L 93.672964 -246.744896 
L 93.665412 -246.626576 
L 93.650307 -246.074418 
L 93.635203 -246.034978 
L 93.627651 -245.956098 
L 93.620099 -245.916658 
L 93.612546 -245.798339 
L 93.604994 -245.719459 
L 93.597442 -245.24618 
L 93.58989 -244.536262 
L 93.582338 -244.496822 
L 93.574785 -244.378503 
L 93.567233 -244.102423 
L 93.559681 -244.023543 
L 93.537024 -243.984104 
L 93.529472 -243.589705 
L 93.52192 -243.550265 
L 93.506815 -243.195306 
L 93.499263 -243.116426 
L 93.491711 -242.958666 
L 93.484159 -242.879787 
L 93.476607 -242.840347 
L 93.469054 -242.288188 
L 93.461502 -242.209309 
L 93.45395 -242.051549 
L 93.446398 -242.012109 
L 93.438846 -241.972669 
L 93.431293 -241.85435 
L 93.416189 -241.499391 
L 93.408637 -241.262751 
L 93.401084 -241.104992 
L 93.393532 -240.710593 
L 93.38598 -240.395074 
L 93.378428 -240.079555 
L 93.370876 -239.724596 
L 93.363323 -239.409076 
L 93.348219 -239.330197 
L 93.340667 -239.093557 
L 93.333115 -238.580839 
L 93.325562 -238.304759 
L 93.31801 -238.147 
L 93.310458 -238.02868 
L 93.302906 -237.870921 
L 93.295353 -237.397642 
L 93.287801 -237.279322 
L 93.280249 -236.884923 
L 93.272697 -236.766604 
L 93.265145 -236.569404 
L 93.25004 -235.820046 
L 93.242488 -235.701727 
L 93.227384 -235.543967 
L 93.219831 -235.149568 
L 93.212279 -234.952369 
L 93.204727 -234.163571 
L 93.197175 -234.005812 
L 93.189622 -233.690292 
L 93.18207 -233.217014 
L 93.174518 -232.980374 
L 93.166966 -232.940934 
L 93.159414 -232.664855 
L 93.151861 -232.152137 
L 93.136757 -231.915497 
L 93.129205 -231.323899 
L 93.121653 -231.205579 
L 93.106548 -230.96894 
L 93.098996 -230.85062 
L 93.091444 -230.771741 
L 93.076339 -230.219582 
L 93.068787 -230.140702 
L 93.061235 -228.641987 
L 93.053683 -228.208148 
L 93.04613 -227.103831 
L 93.038578 -226.827752 
L 93.031026 -226.669992 
L 93.023474 -226.196713 
L 93.015922 -225.683995 
L 93.008369 -225.605115 
L 93.000817 -224.619118 
L 92.985713 -223.67256 
L 92.970608 -223.475361 
L 92.963056 -223.080962 
L 92.955504 -222.449924 
L 92.947952 -222.371044 
L 92.940399 -222.252724 
L 92.932847 -222.055525 
L 92.925295 -221.582246 
L 92.917743 -221.542806 
L 92.910191 -220.35961 
L 92.902638 -220.12297 
L 92.895086 -219.491932 
L 92.887534 -219.373612 
L 92.879982 -218.229856 
L 92.87243 -218.190416 
L 92.864877 -217.322738 
L 92.857325 -217.164979 
L 92.849773 -216.61282 
L 92.842221 -215.390184 
L 92.834668 -215.232424 
L 92.827116 -212.747711 
L 92.819564 -212.629391 
L 92.812012 -211.801154 
L 92.80446 -210.144678 
L 92.796907 -209.6714 
L 92.789355 -209.43476 
L 92.781803 -209.000921 
L 92.774251 -208.212124 
L 92.766699 -206.516208 
L 92.759146 -206.121809 
L 92.751594 -205.648531 
L 92.744042 -203.715976 
L 92.73649 -202.49334 
L 92.721385 -202.4539 
L 92.713833 -200.560785 
L 92.706281 -200.442465 
L 92.698729 -199.614228 
L 92.691176 -199.495908 
L 92.683624 -198.62823 
L 92.676072 -198.115512 
L 92.660968 -195.551919 
L 92.653415 -195.27584 
L 92.645863 -193.816564 
L 92.638311 -192.988326 
L 92.630759 -192.554487 
L 92.623206 -191.64737 
L 92.615654 -191.331851 
L 92.608102 -191.213531 
L 92.60055 -190.858572 
L 92.592998 -188.847138 
L 92.570341 -188.413299 
L 92.562789 -188.334419 
L 92.555237 -188.2161 
L 92.547684 -186.362425 
L 92.540132 -183.917152 
L 92.53258 -179.657643 
L 92.525028 -178.632206 
L 92.517475 -177.922288 
L 92.509923 -174.096619 
L 92.502371 -172.795103 
L 92.494819 -172.164064 
L 92.487267 -168.969433 
L 92.479714 -164.788805 
L 92.472162 -163.447849 
L 92.46461 -162.304092 
L 92.457058 -161.120895 
L 92.449506 -160.687057 
L 92.441953 -158.399543 
L 92.434401 -156.664188 
L 92.426849 -150.827084 
L 92.419297 -145.22662 
L 92.411745 -144.437822 
L 92.404192 -142.347508 
L 92.39664 -141.992549 
L 92.389088 -140.809352 
L 92.381536 -138.797918 
L 92.373983 -137.93024 
L 92.366431 -132.921374 
L 92.358879 -132.724175 
L 92.351327 -130.278902 
L 92.343775 -121.917645 
L 92.336222 -106.023369 
L 92.32867 -94.151963 
L 92.321118 -91.036211 
L 92.313566 -87.604941 
L 92.306014 -78.178807 
L 92.298461 -77.15337 
L 92.290909 -61.692933 
z
" id="m28579a182c" style="stroke:#4682b4;stroke-opacity:0.2;"/>
    </defs>
    <g clip-path="url(#p3214ef0bb7)">
     <use style="fill:#4682b4;fill-opacity:0.2;stroke:#4682b4;stroke-opacity:0.2;" x="0" xlink:href="#m28579a182c" y="360"/>
    </g>
   </g>
   <g id="PolyCollection_2">
    <path clip-path="url(#p3214ef0bb7)" d="M 92.290909 215.503018 
L 92.290909 282.994529 
L 92.298461 190.399528 
L 92.306014 162.988805 
L 92.306014 157.270021 
L 92.306014 157.270021 
L 92.298461 172.434659 
L 92.290909 215.503018 
z
" style="fill:#ffa500;fill-opacity:0.2;stroke:#ffa500;stroke-opacity:0.2;"/>
    <path clip-path="url(#p3214ef0bb7)" d="M 92.351327 137.865595 
L 92.351327 141.415185 
L 92.351327 137.865595 
L 92.351327 137.865595 
z
" style="fill:#ffa500;fill-opacity:0.2;stroke:#ffa500;stroke-opacity:0.2;"/>
    <path clip-path="url(#p3214ef0bb7)" d="M 92.381536 125.639229 
L 92.381536 130.924175 
L 92.39664 123.470036 
L 92.39664 120.906443 
L 92.39664 120.906443 
L 92.381536 125.639229 
z
" style="fill:#ffa500;fill-opacity:0.2;stroke:#ffa500;stroke-opacity:0.2;"/>
    <path clip-path="url(#p3214ef0bb7)" d="M 92.487267 102.645774 
L 92.487267 104.14449 
L 92.487267 102.645774 
L 92.487267 102.645774 
z
" style="fill:#ffa500;fill-opacity:0.2;stroke:#ffa500;stroke-opacity:0.2;"/>
    <path clip-path="url(#p3214ef0bb7)" d="M 92.577893 94.402837 
L 92.577893 95.664913 
L 92.577893 94.402837 
L 92.577893 94.402837 
z
" style="fill:#ffa500;fill-opacity:0.2;stroke:#ffa500;stroke-opacity:0.2;"/>
    <path clip-path="url(#p3214ef0bb7)" d="M 92.608102 88.053015 
L 92.608102 89.275651 
L 92.608102 88.053015 
L 92.608102 88.053015 
z
" style="fill:#ffa500;fill-opacity:0.2;stroke:#ffa500;stroke-opacity:0.2;"/>
   </g>
   <g id="line2d_13">
    <path clip-path="url(#p3214ef0bb7)" d="M 92.290909 301.186179 
L 92.472162 197.12403 
L 92.940399 137.845875 
L 93.023474 134.059646 
L 93.31801 121.91216 
L 93.597442 115.108779 
L 93.756038 111.04647 
L 94.533916 98.859544 
L 94.971945 94.580316 
L 95.22872 92.667482 
L 95.696957 88.900972 
L 95.893315 88.112174 
L 96.036807 87.283937 
L 96.089672 87.126177 
L 96.633432 84.286505 
L 97.199848 82.51171 
L 97.365996 82.137031 
L 97.917308 81.151034 
L 98.068352 80.697475 
L 98.302471 80.224196 
L 98.46862 79.790358 
L 98.551694 79.593158 
L 98.695186 79.08044 
L 98.921752 78.705761 
L 99.103005 78.153602 
L 99.276706 77.778923 
L 99.45796 77.187325 
L 99.563691 77.029565 
L 99.669421 76.635167 
L 99.956406 76.004128 
L 100.130106 75.787209 
L 100.37933 75.49141 
L 100.802253 75.116731 
L 101.338461 74.071574 
L 101.444192 73.992694 
L 101.761385 73.756055 
L 101.867116 73.539135 
L 102.206965 73.203896 
L 102.471293 73.006697 
L 102.607232 72.710897 
L 103.022604 72.454538 
L 103.226514 72.139019 
L 103.362454 72.060139 
L 103.641886 71.90238 
L 103.785378 71.66574 
L 104.011944 71.429101 
L 104.616121 70.876943 
L 104.895553 70.502264 
L 105.122119 70.344504 
L 105.235403 70.167025 
L 105.643222 70.009265 
L 106.4211 69.535986 
L 106.82892 69.299347 
L 106.942203 69.161307 
L 107.13856 69.023268 
L 108.218527 68.471109 
L 108.324258 68.35279 
L 109.200315 67.840071 
L 109.52506 67.721751 
L 109.570373 67.642872 
L 109.857357 67.485112 
L 110.771175 66.972394 
L 111.481083 66.814634 
L 111.586814 66.735754 
L 114.328268 65.868077 
L 114.894684 65.710317 
L 116.193664 65.197598 
L 117.039512 64.980679 
L 117.394466 64.882079 
L 119.063505 64.606 
L 119.093714 64.48768 
L 120.823171 64.172161 
L 121.653914 63.935522 
L 121.767198 63.856642 
L 125.105276 63.304484 
L 126.207899 63.107284 
L 128.624607 62.811485 
L 130.40693 62.436806 
L 130.527765 62.357926 
L 133.986679 61.766328 
L 135.059093 61.648008 
L 137.030221 61.490249 
L 137.944039 61.371929 
L 141.455818 61.01697 
L 143.1022 60.859211 
L 143.162618 60.780331 
L 147.897856 60.228172 
L 148.486928 60.149293 
L 151.356769 59.873213 
L 153.003152 59.676014 
L 155.193294 59.518254 
L 156.711289 59.399935 
L 169.036501 58.729457 
L 180.274194 58.256178 
L 182.290635 58.058978 
L 184.156032 57.980099 
L 189.669147 57.743459 
L 195.522113 57.34906 
L 234.045953 56.402503 
L 234.076162 56.363063 
L 235.292068 56.323623 
L 263.975374 56.047544 
L 264.073553 56.008104 
L 280.635557 55.850345 
L 280.650661 55.810905 
L 284.902557 55.771465 
L 378.036452 55.613705 
L 498.109091 55.554545 
L 498.109091 55.554545 
" style="fill:none;stroke:#4682b4;stroke-linecap:round;stroke-width:1.5;"/>
   </g>
   <g id="line2d_14">
    <path clip-path="url(#p3214ef0bb7)" d="M 92.290909 246.088653 
L 92.298461 181.170594 
L 92.306014 160.129413 
L 92.321118 148.277726 
L 92.336222 144.491497 
L 92.351327 139.64039 
L 92.373983 134.316005 
L 92.381536 128.334289 
L 92.39664 122.188239 
L 92.404192 118.973888 
L 92.411745 116.489175 
L 92.419297 114.359421 
L 92.426849 112.505746 
L 92.434401 110.770391 
L 92.441953 109.547754 
L 92.449506 107.970159 
L 92.472162 105.958725 
L 92.487267 103.395132 
L 92.502371 101.502017 
L 92.509923 100.31882 
L 92.540132 98.465145 
L 92.555237 97.084749 
L 92.577893 95.033875 
L 92.585445 92.904121 
L 92.592998 91.444845 
L 92.60055 90.340528 
L 92.608102 88.664333 
L 92.653415 87.303657 
L 92.676072 86.514859 
L 92.698729 85.371102 
L 92.721385 84.661184 
L 92.728937 83.714627 
L 92.751594 82.886389 
L 92.774251 81.427113 
L 92.80446 80.559436 
L 92.827116 79.691758 
L 92.864877 78.86352 
L 92.879982 77.838083 
L 92.932847 76.930966 
L 92.993265 76.181608 
L 93.038578 75.31393 
L 93.098996 74.367373 
L 93.121653 73.420815 
L 93.189622 72.710897 
L 93.234936 71.80378 
L 93.295353 70.975542 
L 93.340667 70.265624 
L 93.416189 69.713466 
L 93.491711 69.358507 
L 93.582338 68.766909 
L 93.695621 68.25419 
L 93.771143 67.741471 
L 93.914635 66.873794 
L 94.027918 66.400515 
L 94.156306 65.730037 
L 94.352663 65.414518 
L 94.549021 65.059559 
L 94.71517 64.7046 
L 94.919079 64.073562 
L 95.107885 63.560843 
L 95.394869 63.008685 
L 95.63654 62.614286 
L 95.983941 62.022687 
L 96.270926 61.588849 
L 96.754267 61.391649 
L 97.184743 60.878931 
L 97.736055 60.445092 
L 98.355336 60.011253 
L 98.98217 59.656294 
L 99.83557 59.301335 
L 100.734284 58.985816 
L 101.799146 58.630857 
L 103.181201 58.394218 
L 104.955971 58.236458 
L 106.791159 57.960379 
L 108.973748 57.723739 
L 111.790724 57.56598 
L 115.068384 57.250461 
L 119.342937 56.856062 
L 124.410472 56.619422 
L 131.245225 56.422223 
L 139.952927 56.146144 
L 152.761481 55.948944 
L 172.601145 55.909504 
L 205.151185 55.712305 
L 272.539584 55.633425 
L 498.109091 55.554545 
" style="fill:none;stroke:#ffa500;stroke-linecap:round;stroke-width:1.5;"/>
   </g>
   <g id="line2d_15">
    <path clip-path="url(#p3214ef0bb7)" d="M 92.290909 302.645455 
L 498.109091 55.554545 
" style="fill:none;stroke:#000000;stroke-dasharray:5.55,2.4;stroke-dashoffset:0;stroke-width:1.5;"/>
   </g>
   <g id="patch_3">
    <path d="M 72 315 
L 72 43.2 
" style="fill:none;stroke:#cccccc;stroke-linecap:square;stroke-linejoin:miter;stroke-width:0.8;"/>
   </g>
   <g id="patch_4">
    <path d="M 518.4 315 
L 518.4 43.2 
" style="fill:none;stroke:#cccccc;stroke-linecap:square;stroke-linejoin:miter;stroke-width:0.8;"/>
   </g>
   <g id="patch_5">
    <path d="M 72 315 
L 518.4 315 
" style="fill:none;stroke:#cccccc;stroke-linecap:square;stroke-linejoin:miter;stroke-width:0.8;"/>
   </g>
   <g id="patch_6">
    <path d="M 72 43.2 
L 518.4 43.2 
" style="fill:none;stroke:#cccccc;stroke-linecap:square;stroke-linejoin:miter;stroke-width:0.8;"/>
   </g>
   <g id="legend_1">
    <g id="patch_7">
     <path d="M 410.489062 310 
L 511.4 310 
Q 513.4 310 513.4 308 
L 513.4 280.709375 
Q 513.4 278.709375 511.4 278.709375 
L 410.489062 278.709375 
Q 408.489062 278.709375 408.489062 280.709375 
L 408.489062 308 
Q 408.489062 310 410.489062 310 
z
" style="fill:#ffffff;opacity:0.8;stroke:#cccccc;stroke-linejoin:miter;"/>
    </g>
    <g id="line2d_16">
     <path d="M 412.489062 286.367188 
L 432.489062 286.367188 
" style="fill:none;stroke:#4682b4;stroke-linecap:round;stroke-width:1.5;"/>
    </g>
    <g id="line2d_17"/>
    <g id="text_13">
     <!-- SGD -->
     <g style="fill:#262626;" transform="translate(440.489062 289.867188)scale(0.1 -0.1)">
      <defs>
       <path d="M 4.5 23 
L 13.421875 23.78125 
Q 14.0625 18.40625 16.375 14.96875 
Q 18.703125 11.53125 23.578125 9.40625 
Q 28.46875 7.28125 34.578125 7.28125 
Q 39.984375 7.28125 44.140625 8.890625 
Q 48.296875 10.5 50.3125 13.296875 
Q 52.34375 16.109375 52.34375 19.4375 
Q 52.34375 22.796875 50.390625 25.3125 
Q 48.4375 27.828125 43.953125 29.546875 
Q 41.0625 30.671875 31.203125 33.03125 
Q 21.34375 35.40625 17.390625 37.5 
Q 12.25 40.1875 9.734375 44.15625 
Q 7.234375 48.140625 7.234375 53.078125 
Q 7.234375 58.5 10.296875 63.203125 
Q 13.375 67.921875 19.28125 70.359375 
Q 25.203125 72.796875 32.421875 72.796875 
Q 40.375 72.796875 46.453125 70.234375 
Q 52.546875 67.671875 55.8125 62.6875 
Q 59.078125 57.71875 59.328125 51.421875 
L 50.25 50.734375 
Q 49.515625 57.515625 45.28125 60.984375 
Q 41.0625 64.453125 32.8125 64.453125 
Q 24.21875 64.453125 20.28125 61.296875 
Q 16.359375 58.15625 16.359375 53.71875 
Q 16.359375 49.859375 19.140625 47.359375 
Q 21.875 44.875 33.421875 42.265625 
Q 44.96875 39.65625 49.265625 37.703125 
Q 55.515625 34.8125 58.484375 30.390625 
Q 61.46875 25.984375 61.46875 20.21875 
Q 61.46875 14.5 58.203125 9.4375 
Q 54.9375 4.390625 48.796875 1.578125 
Q 42.671875 -1.21875 35.015625 -1.21875 
Q 25.296875 -1.21875 18.71875 1.609375 
Q 12.15625 4.4375 8.421875 10.125 
Q 4.6875 15.828125 4.5 23 
z
" id="ArialMT-83"/>
       <path d="M 41.21875 28.078125 
L 41.21875 36.46875 
L 71.53125 36.53125 
L 71.53125 9.96875 
Q 64.546875 4.390625 57.125 1.578125 
Q 49.703125 -1.21875 41.890625 -1.21875 
Q 31.34375 -1.21875 22.71875 3.296875 
Q 14.109375 7.8125 9.71875 16.359375 
Q 5.328125 24.90625 5.328125 35.453125 
Q 5.328125 45.90625 9.6875 54.953125 
Q 14.0625 64.015625 22.265625 68.40625 
Q 30.46875 72.796875 41.15625 72.796875 
Q 48.921875 72.796875 55.1875 70.28125 
Q 61.46875 67.78125 65.03125 63.28125 
Q 68.609375 58.796875 70.453125 51.5625 
L 61.921875 49.21875 
Q 60.296875 54.6875 57.90625 57.8125 
Q 55.515625 60.9375 51.0625 62.8125 
Q 46.625 64.703125 41.21875 64.703125 
Q 34.71875 64.703125 29.984375 62.71875 
Q 25.25 60.75 22.34375 57.515625 
Q 19.4375 54.296875 17.828125 50.4375 
Q 15.09375 43.796875 15.09375 36.03125 
Q 15.09375 26.46875 18.390625 20.015625 
Q 21.6875 13.578125 27.984375 10.453125 
Q 34.28125 7.328125 41.359375 7.328125 
Q 47.515625 7.328125 53.375 9.6875 
Q 59.234375 12.0625 62.25 14.75 
L 62.25 28.078125 
z
" id="ArialMT-71"/>
       <path d="M 7.71875 0 
L 7.71875 71.578125 
L 32.375 71.578125 
Q 40.71875 71.578125 45.125 70.5625 
Q 51.265625 69.140625 55.609375 65.4375 
Q 61.28125 60.640625 64.078125 53.1875 
Q 66.890625 45.75 66.890625 36.1875 
Q 66.890625 28.03125 64.984375 21.734375 
Q 63.09375 15.4375 60.109375 11.296875 
Q 57.125 7.171875 53.578125 4.796875 
Q 50.046875 2.4375 45.046875 1.21875 
Q 40.046875 0 33.546875 0 
z
M 17.1875 8.453125 
L 32.46875 8.453125 
Q 39.546875 8.453125 43.578125 9.765625 
Q 47.609375 11.078125 50 13.484375 
Q 53.375 16.84375 55.25 22.53125 
Q 57.125 28.21875 57.125 36.328125 
Q 57.125 47.5625 53.4375 53.59375 
Q 49.75 59.625 44.484375 61.671875 
Q 40.671875 63.140625 32.234375 63.140625 
L 17.1875 63.140625 
z
" id="ArialMT-68"/>
      </defs>
      <use xlink:href="#ArialMT-83"/>
      <use x="66.699219" xlink:href="#ArialMT-71"/>
      <use x="144.482422" xlink:href="#ArialMT-68"/>
     </g>
    </g>
    <g id="line2d_18">
     <path d="M 412.489062 300.5125 
L 432.489062 300.5125 
" style="fill:none;stroke:#ffa500;stroke-linecap:round;stroke-width:1.5;"/>
    </g>
    <g id="line2d_19"/>
    <g id="text_14">
     <!-- Random Forest -->
     <g style="fill:#262626;" transform="translate(440.489062 304.0125)scale(0.1 -0.1)">
      <defs>
       <path d="M 7.859375 0 
L 7.859375 71.578125 
L 39.59375 71.578125 
Q 49.171875 71.578125 54.140625 69.640625 
Q 59.125 67.71875 62.109375 62.828125 
Q 65.09375 57.953125 65.09375 52.046875 
Q 65.09375 44.4375 60.15625 39.203125 
Q 55.21875 33.984375 44.921875 32.5625 
Q 48.6875 30.765625 50.640625 29 
Q 54.78125 25.203125 58.5 19.484375 
L 70.953125 0 
L 59.03125 0 
L 49.5625 14.890625 
Q 45.40625 21.34375 42.71875 24.75 
Q 40.046875 28.171875 37.921875 29.53125 
Q 35.796875 30.90625 33.59375 31.453125 
Q 31.984375 31.78125 28.328125 31.78125 
L 17.328125 31.78125 
L 17.328125 0 
z
M 17.328125 39.984375 
L 37.703125 39.984375 
Q 44.1875 39.984375 47.84375 41.328125 
Q 51.515625 42.671875 53.421875 45.625 
Q 55.328125 48.578125 55.328125 52.046875 
Q 55.328125 57.125 51.640625 60.390625 
Q 47.953125 63.671875 39.984375 63.671875 
L 17.328125 63.671875 
z
" id="ArialMT-82"/>
       <path d="M 40.4375 6.390625 
Q 35.546875 2.25 31.03125 0.53125 
Q 26.515625 -1.171875 21.34375 -1.171875 
Q 12.796875 -1.171875 8.203125 3 
Q 3.609375 7.171875 3.609375 13.671875 
Q 3.609375 17.484375 5.34375 20.625 
Q 7.078125 23.78125 9.890625 25.6875 
Q 12.703125 27.59375 16.21875 28.5625 
Q 18.796875 29.25 24.03125 29.890625 
Q 34.671875 31.15625 39.703125 32.90625 
Q 39.75 34.71875 39.75 35.203125 
Q 39.75 40.578125 37.25 42.78125 
Q 33.890625 45.75 27.25 45.75 
Q 21.046875 45.75 18.09375 43.578125 
Q 15.140625 41.40625 13.71875 35.890625 
L 5.125 37.0625 
Q 6.296875 42.578125 8.984375 45.96875 
Q 11.671875 49.359375 16.75 51.1875 
Q 21.828125 53.03125 28.515625 53.03125 
Q 35.15625 53.03125 39.296875 51.46875 
Q 43.453125 49.90625 45.40625 47.53125 
Q 47.359375 45.171875 48.140625 41.546875 
Q 48.578125 39.3125 48.578125 33.453125 
L 48.578125 21.734375 
Q 48.578125 9.46875 49.140625 6.21875 
Q 49.703125 2.984375 51.375 0 
L 42.1875 0 
Q 40.828125 2.734375 40.4375 6.390625 
z
M 39.703125 26.03125 
Q 34.90625 24.078125 25.34375 22.703125 
Q 19.921875 21.921875 17.671875 20.9375 
Q 15.4375 19.96875 14.203125 18.09375 
Q 12.984375 16.21875 12.984375 13.921875 
Q 12.984375 10.40625 15.640625 8.0625 
Q 18.3125 5.71875 23.4375 5.71875 
Q 28.515625 5.71875 32.46875 7.9375 
Q 36.421875 10.15625 38.28125 14.015625 
Q 39.703125 17 39.703125 22.796875 
z
" id="ArialMT-97"/>
       <path d="M 6.59375 0 
L 6.59375 51.859375 
L 14.5 51.859375 
L 14.5 44.484375 
Q 20.21875 53.03125 31 53.03125 
Q 35.6875 53.03125 39.625 51.34375 
Q 43.5625 49.65625 45.515625 46.921875 
Q 47.46875 44.1875 48.25 40.4375 
Q 48.734375 37.984375 48.734375 31.890625 
L 48.734375 0 
L 39.9375 0 
L 39.9375 31.546875 
Q 39.9375 36.921875 38.90625 39.578125 
Q 37.890625 42.234375 35.28125 43.8125 
Q 32.671875 45.40625 29.15625 45.40625 
Q 23.53125 45.40625 19.453125 41.84375 
Q 15.375 38.28125 15.375 28.328125 
L 15.375 0 
z
" id="ArialMT-110"/>
       <path d="M 40.234375 0 
L 40.234375 6.546875 
Q 35.296875 -1.171875 25.734375 -1.171875 
Q 19.53125 -1.171875 14.328125 2.25 
Q 9.125 5.671875 6.265625 11.796875 
Q 3.421875 17.921875 3.421875 25.875 
Q 3.421875 33.640625 6 39.96875 
Q 8.59375 46.296875 13.765625 49.65625 
Q 18.953125 53.03125 25.34375 53.03125 
Q 30.03125 53.03125 33.6875 51.046875 
Q 37.359375 49.078125 39.65625 45.90625 
L 39.65625 71.578125 
L 48.390625 71.578125 
L 48.390625 0 
z
M 12.453125 25.875 
Q 12.453125 15.921875 16.640625 10.984375 
Q 20.84375 6.0625 26.5625 6.0625 
Q 32.328125 6.0625 36.34375 10.765625 
Q 40.375 15.484375 40.375 25.140625 
Q 40.375 35.796875 36.265625 40.765625 
Q 32.171875 45.75 26.171875 45.75 
Q 20.3125 45.75 16.375 40.96875 
Q 12.453125 36.1875 12.453125 25.875 
z
" id="ArialMT-100"/>
       <path d="M 3.328125 25.921875 
Q 3.328125 40.328125 11.328125 47.265625 
Q 18.015625 53.03125 27.640625 53.03125 
Q 38.328125 53.03125 45.109375 46.015625 
Q 51.90625 39.015625 51.90625 26.65625 
Q 51.90625 16.65625 48.90625 10.90625 
Q 45.90625 5.171875 40.15625 2 
Q 34.421875 -1.171875 27.640625 -1.171875 
Q 16.75 -1.171875 10.03125 5.8125 
Q 3.328125 12.796875 3.328125 25.921875 
z
M 12.359375 25.921875 
Q 12.359375 15.96875 16.703125 11.015625 
Q 21.046875 6.0625 27.640625 6.0625 
Q 34.1875 6.0625 38.53125 11.03125 
Q 42.875 16.015625 42.875 26.21875 
Q 42.875 35.84375 38.5 40.796875 
Q 34.125 45.75 27.640625 45.75 
Q 21.046875 45.75 16.703125 40.8125 
Q 12.359375 35.890625 12.359375 25.921875 
z
" id="ArialMT-111"/>
       <path d="M 6.59375 0 
L 6.59375 51.859375 
L 14.453125 51.859375 
L 14.453125 44.578125 
Q 16.890625 48.390625 20.9375 50.703125 
Q 25 53.03125 30.171875 53.03125 
Q 35.9375 53.03125 39.625 50.640625 
Q 43.3125 48.25 44.828125 43.953125 
Q 50.984375 53.03125 60.84375 53.03125 
Q 68.5625 53.03125 72.703125 48.75 
Q 76.859375 44.484375 76.859375 35.59375 
L 76.859375 0 
L 68.109375 0 
L 68.109375 32.671875 
Q 68.109375 37.9375 67.25 40.25 
Q 66.40625 42.578125 64.15625 43.984375 
Q 61.921875 45.40625 58.890625 45.40625 
Q 53.421875 45.40625 49.796875 41.765625 
Q 46.1875 38.140625 46.1875 30.125 
L 46.1875 0 
L 37.40625 0 
L 37.40625 33.6875 
Q 37.40625 39.546875 35.25 42.46875 
Q 33.109375 45.40625 28.21875 45.40625 
Q 24.515625 45.40625 21.359375 43.453125 
Q 18.21875 41.5 16.796875 37.734375 
Q 15.375 33.984375 15.375 26.90625 
L 15.375 0 
z
" id="ArialMT-109"/>
       <path id="ArialMT-32"/>
       <path d="M 8.203125 0 
L 8.203125 71.578125 
L 56.5 71.578125 
L 56.5 63.140625 
L 17.671875 63.140625 
L 17.671875 40.96875 
L 51.265625 40.96875 
L 51.265625 32.515625 
L 17.671875 32.515625 
L 17.671875 0 
z
" id="ArialMT-70"/>
       <path d="M 6.5 0 
L 6.5 51.859375 
L 14.40625 51.859375 
L 14.40625 44 
Q 17.4375 49.515625 20 51.265625 
Q 22.5625 53.03125 25.640625 53.03125 
Q 30.078125 53.03125 34.671875 50.203125 
L 31.640625 42.046875 
Q 28.421875 43.953125 25.203125 43.953125 
Q 22.3125 43.953125 20.015625 42.21875 
Q 17.71875 40.484375 16.75 37.40625 
Q 15.28125 32.71875 15.28125 27.15625 
L 15.28125 0 
z
" id="ArialMT-114"/>
       <path d="M 42.09375 16.703125 
L 51.171875 15.578125 
Q 49.03125 7.625 43.21875 3.21875 
Q 37.40625 -1.171875 28.375 -1.171875 
Q 17 -1.171875 10.328125 5.828125 
Q 3.65625 12.84375 3.65625 25.484375 
Q 3.65625 38.578125 10.390625 45.796875 
Q 17.140625 53.03125 27.875 53.03125 
Q 38.28125 53.03125 44.875 45.953125 
Q 51.46875 38.875 51.46875 26.03125 
Q 51.46875 25.25 51.421875 23.6875 
L 12.75 23.6875 
Q 13.234375 15.140625 17.578125 10.59375 
Q 21.921875 6.0625 28.421875 6.0625 
Q 33.25 6.0625 36.671875 8.59375 
Q 40.09375 11.140625 42.09375 16.703125 
z
M 13.234375 30.90625 
L 42.1875 30.90625 
Q 41.609375 37.453125 38.875 40.71875 
Q 34.671875 45.796875 27.984375 45.796875 
Q 21.921875 45.796875 17.796875 41.75 
Q 13.671875 37.703125 13.234375 30.90625 
z
" id="ArialMT-101"/>
       <path d="M 3.078125 15.484375 
L 11.765625 16.84375 
Q 12.5 11.625 15.84375 8.84375 
Q 19.1875 6.0625 25.203125 6.0625 
Q 31.25 6.0625 34.171875 8.515625 
Q 37.109375 10.984375 37.109375 14.3125 
Q 37.109375 17.28125 34.515625 19 
Q 32.71875 20.171875 25.53125 21.96875 
Q 15.875 24.421875 12.140625 26.203125 
Q 8.40625 27.984375 6.46875 31.125 
Q 4.546875 34.28125 4.546875 38.09375 
Q 4.546875 41.546875 6.125 44.5 
Q 7.71875 47.46875 10.453125 49.421875 
Q 12.5 50.921875 16.03125 51.96875 
Q 19.578125 53.03125 23.640625 53.03125 
Q 29.734375 53.03125 34.34375 51.265625 
Q 38.96875 49.515625 41.15625 46.5 
Q 43.359375 43.5 44.1875 38.484375 
L 35.59375 37.3125 
Q 35.015625 41.3125 32.203125 43.546875 
Q 29.390625 45.796875 24.265625 45.796875 
Q 18.21875 45.796875 15.625 43.796875 
Q 13.03125 41.796875 13.03125 39.109375 
Q 13.03125 37.40625 14.109375 36.03125 
Q 15.1875 34.625 17.484375 33.6875 
Q 18.796875 33.203125 25.25 31.453125 
Q 34.578125 28.953125 38.25 27.359375 
Q 41.9375 25.78125 44.03125 22.75 
Q 46.140625 19.734375 46.140625 15.234375 
Q 46.140625 10.84375 43.578125 6.953125 
Q 41.015625 3.078125 36.171875 0.953125 
Q 31.34375 -1.171875 25.25 -1.171875 
Q 15.140625 -1.171875 9.84375 3.03125 
Q 4.546875 7.234375 3.078125 15.484375 
z
" id="ArialMT-115"/>
       <path d="M 25.78125 7.859375 
L 27.046875 0.09375 
Q 23.34375 -0.6875 20.40625 -0.6875 
Q 15.625 -0.6875 12.984375 0.828125 
Q 10.359375 2.34375 9.28125 4.8125 
Q 8.203125 7.28125 8.203125 15.1875 
L 8.203125 45.015625 
L 1.765625 45.015625 
L 1.765625 51.859375 
L 8.203125 51.859375 
L 8.203125 64.703125 
L 16.9375 69.96875 
L 16.9375 51.859375 
L 25.78125 51.859375 
L 25.78125 45.015625 
L 16.9375 45.015625 
L 16.9375 14.703125 
Q 16.9375 10.9375 17.40625 9.859375 
Q 17.875 8.796875 18.921875 8.15625 
Q 19.96875 7.515625 21.921875 7.515625 
Q 23.390625 7.515625 25.78125 7.859375 
z
" id="ArialMT-116"/>
      </defs>
      <use xlink:href="#ArialMT-82"/>
      <use x="72.216797" xlink:href="#ArialMT-97"/>
      <use x="127.832031" xlink:href="#ArialMT-110"/>
      <use x="183.447266" xlink:href="#ArialMT-100"/>
      <use x="239.0625" xlink:href="#ArialMT-111"/>
      <use x="294.677734" xlink:href="#ArialMT-109"/>
      <use x="377.978516" xlink:href="#ArialMT-32"/>
      <use x="405.761719" xlink:href="#ArialMT-70"/>
      <use x="466.845703" xlink:href="#ArialMT-111"/>
      <use x="522.460938" xlink:href="#ArialMT-114"/>
      <use x="555.761719" xlink:href="#ArialMT-101"/>
      <use x="611.376953" xlink:href="#ArialMT-115"/>
      <use x="661.376953" xlink:href="#ArialMT-116"/>
     </g>
    </g>
   </g>
  </g>
 </g>
 <defs>
  <clipPath id="p3214ef0bb7">
   <rect height="271.8" width="446.4" x="72" y="43.2"/>
  </clipPath>
 </defs>
</svg>
