<?xml version="1.0" encoding="utf-8" standalone="no"?>
<!DOCTYPE svg PUBLIC "-//W3C//DTD SVG 1.1//EN"
  "http://www.w3.org/Graphics/SVG/1.1/DTD/svg11.dtd">
<!-- Created with matplotlib (https://matplotlib.org/) -->
<svg height="360pt" version="1.1" viewBox="0 0 576 360" width="576pt" xmlns="http://www.w3.org/2000/svg" xmlns:xlink="http://www.w3.org/1999/xlink">
 <metadata>
  <rdf:RDF xmlns:cc="http://creativecommons.org/ns#" xmlns:dc="http://purl.org/dc/elements/1.1/" xmlns:rdf="http://www.w3.org/1999/02/22-rdf-syntax-ns#">
   <cc:Work>
    <dc:type rdf:resource="http://purl.org/dc/dcmitype/StillImage"/>
    <dc:date>2021-07-14T05:27:53.308251</dc:date>
    <dc:format>image/svg+xml</dc:format>
    <dc:creator>
     <cc:Agent>
      <dc:title>Matplotlib v3.3.4, https://matplotlib.org/</dc:title>
     </cc:Agent>
    </dc:creator>
   </cc:Work>
  </rdf:RDF>
 </metadata>
 <defs>
  <style type="text/css">*{stroke-linecap:butt;stroke-linejoin:round;}</style>
 </defs>
 <g id="figure_1">
  <g id="patch_1">
   <path d="M 0 360 
L 576 360 
L 576 0 
L 0 0 
z
" style="fill:#ffffff;"/>
  </g>
  <g id="axes_1">
   <g id="patch_2">
    <path d="M 72 315 
L 518.4 315 
L 518.4 43.2 
L 72 43.2 
z
" style="fill:#ffffff;"/>
   </g>
   <g id="matplotlib.axis_1">
    <g id="xtick_1">
     <g id="line2d_1">
      <path clip-path="url(#p959ad91ea9)" d="M 98.875136 315 
L 98.875136 43.2 
" style="fill:none;stroke:#cccccc;stroke-linecap:round;stroke-width:0.8;"/>
     </g>
     <g id="text_1">
      <!-- −60000 -->
      <g style="fill:#262626;" transform="translate(82.052479 329.157812)scale(0.1 -0.1)">
       <defs>
        <path d="M 52.828125 31.203125 
L 5.5625 31.203125 
L 5.5625 39.40625 
L 52.828125 39.40625 
z
" id="ArialMT-8722"/>
        <path d="M 49.75 54.046875 
L 41.015625 53.375 
Q 39.84375 58.546875 37.703125 60.890625 
Q 34.125 64.65625 28.90625 64.65625 
Q 24.703125 64.65625 21.53125 62.3125 
Q 17.390625 59.28125 14.984375 53.46875 
Q 12.59375 47.65625 12.5 36.921875 
Q 15.671875 41.75 20.265625 44.09375 
Q 24.859375 46.4375 29.890625 46.4375 
Q 38.671875 46.4375 44.84375 39.96875 
Q 51.03125 33.5 51.03125 23.25 
Q 51.03125 16.5 48.125 10.71875 
Q 45.21875 4.9375 40.140625 1.859375 
Q 35.0625 -1.21875 28.609375 -1.21875 
Q 17.625 -1.21875 10.6875 6.859375 
Q 3.765625 14.9375 3.765625 33.5 
Q 3.765625 54.25 11.421875 63.671875 
Q 18.109375 71.875 29.4375 71.875 
Q 37.890625 71.875 43.28125 67.140625 
Q 48.6875 62.40625 49.75 54.046875 
z
M 13.875 23.1875 
Q 13.875 18.65625 15.796875 14.5 
Q 17.71875 10.359375 21.1875 8.171875 
Q 24.65625 6 28.46875 6 
Q 34.03125 6 38.03125 10.484375 
Q 42.046875 14.984375 42.046875 22.703125 
Q 42.046875 30.125 38.078125 34.390625 
Q 34.125 38.671875 28.125 38.671875 
Q 22.171875 38.671875 18.015625 34.390625 
Q 13.875 30.125 13.875 23.1875 
z
" id="ArialMT-54"/>
        <path d="M 4.15625 35.296875 
Q 4.15625 48 6.765625 55.734375 
Q 9.375 63.484375 14.515625 67.671875 
Q 19.671875 71.875 27.484375 71.875 
Q 33.25 71.875 37.59375 69.546875 
Q 41.9375 67.234375 44.765625 62.859375 
Q 47.609375 58.5 49.21875 52.21875 
Q 50.828125 45.953125 50.828125 35.296875 
Q 50.828125 22.703125 48.234375 14.96875 
Q 45.65625 7.234375 40.5 3 
Q 35.359375 -1.21875 27.484375 -1.21875 
Q 17.140625 -1.21875 11.234375 6.203125 
Q 4.15625 15.140625 4.15625 35.296875 
z
M 13.1875 35.296875 
Q 13.1875 17.671875 17.3125 11.828125 
Q 21.4375 6 27.484375 6 
Q 33.546875 6 37.671875 11.859375 
Q 41.796875 17.71875 41.796875 35.296875 
Q 41.796875 52.984375 37.671875 58.78125 
Q 33.546875 64.59375 27.390625 64.59375 
Q 21.34375 64.59375 17.71875 59.46875 
Q 13.1875 52.9375 13.1875 35.296875 
z
" id="ArialMT-48"/>
       </defs>
       <use xlink:href="#ArialMT-8722"/>
       <use x="58.398438" xlink:href="#ArialMT-54"/>
       <use x="114.013672" xlink:href="#ArialMT-48"/>
       <use x="169.628906" xlink:href="#ArialMT-48"/>
       <use x="225.244141" xlink:href="#ArialMT-48"/>
       <use x="280.859375" xlink:href="#ArialMT-48"/>
      </g>
     </g>
    </g>
    <g id="xtick_2">
     <g id="line2d_2">
      <path clip-path="url(#p959ad91ea9)" d="M 172.69576 315 
L 172.69576 43.2 
" style="fill:none;stroke:#cccccc;stroke-linecap:round;stroke-width:0.8;"/>
     </g>
     <g id="text_2">
      <!-- −40000 -->
      <g style="fill:#262626;" transform="translate(155.873104 329.157812)scale(0.1 -0.1)">
       <defs>
        <path d="M 32.328125 0 
L 32.328125 17.140625 
L 1.265625 17.140625 
L 1.265625 25.203125 
L 33.9375 71.578125 
L 41.109375 71.578125 
L 41.109375 25.203125 
L 50.78125 25.203125 
L 50.78125 17.140625 
L 41.109375 17.140625 
L 41.109375 0 
z
M 32.328125 25.203125 
L 32.328125 57.46875 
L 9.90625 25.203125 
z
" id="ArialMT-52"/>
       </defs>
       <use xlink:href="#ArialMT-8722"/>
       <use x="58.398438" xlink:href="#ArialMT-52"/>
       <use x="114.013672" xlink:href="#ArialMT-48"/>
       <use x="169.628906" xlink:href="#ArialMT-48"/>
       <use x="225.244141" xlink:href="#ArialMT-48"/>
       <use x="280.859375" xlink:href="#ArialMT-48"/>
      </g>
     </g>
    </g>
    <g id="xtick_3">
     <g id="line2d_3">
      <path clip-path="url(#p959ad91ea9)" d="M 246.516384 315 
L 246.516384 43.2 
" style="fill:none;stroke:#cccccc;stroke-linecap:round;stroke-width:0.8;"/>
     </g>
     <g id="text_3">
      <!-- −20000 -->
      <g style="fill:#262626;" transform="translate(229.693728 329.157812)scale(0.1 -0.1)">
       <defs>
        <path d="M 50.34375 8.453125 
L 50.34375 0 
L 3.03125 0 
Q 2.9375 3.171875 4.046875 6.109375 
Q 5.859375 10.9375 9.828125 15.625 
Q 13.8125 20.3125 21.34375 26.46875 
Q 33.015625 36.03125 37.109375 41.625 
Q 41.21875 47.21875 41.21875 52.203125 
Q 41.21875 57.421875 37.46875 61 
Q 33.734375 64.59375 27.734375 64.59375 
Q 21.390625 64.59375 17.578125 60.78125 
Q 13.765625 56.984375 13.71875 50.25 
L 4.6875 51.171875 
Q 5.609375 61.28125 11.65625 66.578125 
Q 17.71875 71.875 27.9375 71.875 
Q 38.234375 71.875 44.234375 66.15625 
Q 50.25 60.453125 50.25 52 
Q 50.25 47.703125 48.484375 43.546875 
Q 46.734375 39.40625 42.65625 34.8125 
Q 38.578125 30.21875 29.109375 22.21875 
Q 21.1875 15.578125 18.9375 13.203125 
Q 16.703125 10.84375 15.234375 8.453125 
z
" id="ArialMT-50"/>
       </defs>
       <use xlink:href="#ArialMT-8722"/>
       <use x="58.398438" xlink:href="#ArialMT-50"/>
       <use x="114.013672" xlink:href="#ArialMT-48"/>
       <use x="169.628906" xlink:href="#ArialMT-48"/>
       <use x="225.244141" xlink:href="#ArialMT-48"/>
       <use x="280.859375" xlink:href="#ArialMT-48"/>
      </g>
     </g>
    </g>
    <g id="xtick_4">
     <g id="line2d_4">
      <path clip-path="url(#p959ad91ea9)" d="M 320.337009 315 
L 320.337009 43.2 
" style="fill:none;stroke:#cccccc;stroke-linecap:round;stroke-width:0.8;"/>
     </g>
     <g id="text_4">
      <!-- 0 -->
      <g style="fill:#262626;" transform="translate(317.55654 329.157812)scale(0.1 -0.1)">
       <use xlink:href="#ArialMT-48"/>
      </g>
     </g>
    </g>
    <g id="xtick_5">
     <g id="line2d_5">
      <path clip-path="url(#p959ad91ea9)" d="M 394.157633 315 
L 394.157633 43.2 
" style="fill:none;stroke:#cccccc;stroke-linecap:round;stroke-width:0.8;"/>
     </g>
     <g id="text_5">
      <!-- 20000 -->
      <g style="fill:#262626;" transform="translate(380.25529 329.157812)scale(0.1 -0.1)">
       <use xlink:href="#ArialMT-50"/>
       <use x="55.615234" xlink:href="#ArialMT-48"/>
       <use x="111.230469" xlink:href="#ArialMT-48"/>
       <use x="166.845703" xlink:href="#ArialMT-48"/>
       <use x="222.460938" xlink:href="#ArialMT-48"/>
      </g>
     </g>
    </g>
    <g id="xtick_6">
     <g id="line2d_6">
      <path clip-path="url(#p959ad91ea9)" d="M 467.978258 315 
L 467.978258 43.2 
" style="fill:none;stroke:#cccccc;stroke-linecap:round;stroke-width:0.8;"/>
     </g>
     <g id="text_6">
      <!-- 40000 -->
      <g style="fill:#262626;" transform="translate(454.075914 329.157812)scale(0.1 -0.1)">
       <use xlink:href="#ArialMT-52"/>
       <use x="55.615234" xlink:href="#ArialMT-48"/>
       <use x="111.230469" xlink:href="#ArialMT-48"/>
       <use x="166.845703" xlink:href="#ArialMT-48"/>
       <use x="222.460938" xlink:href="#ArialMT-48"/>
      </g>
     </g>
    </g>
   </g>
   <g id="matplotlib.axis_2">
    <g id="ytick_1">
     <g id="line2d_7">
      <path clip-path="url(#p959ad91ea9)" d="M 72 302.684901 
L 518.4 302.684901 
" style="fill:none;stroke:#cccccc;stroke-linecap:round;stroke-width:0.8;"/>
     </g>
     <g id="text_7">
      <!-- 0.0 -->
      <g style="fill:#262626;" transform="translate(51.1 306.263807)scale(0.1 -0.1)">
       <defs>
        <path d="M 9.078125 0 
L 9.078125 10.015625 
L 19.09375 10.015625 
L 19.09375 0 
z
" id="ArialMT-46"/>
       </defs>
       <use xlink:href="#ArialMT-48"/>
       <use x="55.615234" xlink:href="#ArialMT-46"/>
       <use x="83.398438" xlink:href="#ArialMT-48"/>
      </g>
     </g>
    </g>
    <g id="ytick_2">
     <g id="line2d_8">
      <path clip-path="url(#p959ad91ea9)" d="M 72 253.25883 
L 518.4 253.25883 
" style="fill:none;stroke:#cccccc;stroke-linecap:round;stroke-width:0.8;"/>
     </g>
     <g id="text_8">
      <!-- 0.2 -->
      <g style="fill:#262626;" transform="translate(51.1 256.837736)scale(0.1 -0.1)">
       <use xlink:href="#ArialMT-48"/>
       <use x="55.615234" xlink:href="#ArialMT-46"/>
       <use x="83.398438" xlink:href="#ArialMT-50"/>
      </g>
     </g>
    </g>
    <g id="ytick_3">
     <g id="line2d_9">
      <path clip-path="url(#p959ad91ea9)" d="M 72 203.832759 
L 518.4 203.832759 
" style="fill:none;stroke:#cccccc;stroke-linecap:round;stroke-width:0.8;"/>
     </g>
     <g id="text_9">
      <!-- 0.4 -->
      <g style="fill:#262626;" transform="translate(51.1 207.411665)scale(0.1 -0.1)">
       <use xlink:href="#ArialMT-48"/>
       <use x="55.615234" xlink:href="#ArialMT-46"/>
       <use x="83.398438" xlink:href="#ArialMT-52"/>
      </g>
     </g>
    </g>
    <g id="ytick_4">
     <g id="line2d_10">
      <path clip-path="url(#p959ad91ea9)" d="M 72 154.406688 
L 518.4 154.406688 
" style="fill:none;stroke:#cccccc;stroke-linecap:round;stroke-width:0.8;"/>
     </g>
     <g id="text_10">
      <!-- 0.6 -->
      <g style="fill:#262626;" transform="translate(51.1 157.985594)scale(0.1 -0.1)">
       <use xlink:href="#ArialMT-48"/>
       <use x="55.615234" xlink:href="#ArialMT-46"/>
       <use x="83.398438" xlink:href="#ArialMT-54"/>
      </g>
     </g>
    </g>
    <g id="ytick_5">
     <g id="line2d_11">
      <path clip-path="url(#p959ad91ea9)" d="M 72 104.980617 
L 518.4 104.980617 
" style="fill:none;stroke:#cccccc;stroke-linecap:round;stroke-width:0.8;"/>
     </g>
     <g id="text_11">
      <!-- 0.8 -->
      <g style="fill:#262626;" transform="translate(51.1 108.559523)scale(0.1 -0.1)">
       <defs>
        <path d="M 17.671875 38.8125 
Q 12.203125 40.828125 9.5625 44.53125 
Q 6.9375 48.25 6.9375 53.421875 
Q 6.9375 61.234375 12.546875 66.546875 
Q 18.171875 71.875 27.484375 71.875 
Q 36.859375 71.875 42.578125 66.421875 
Q 48.296875 60.984375 48.296875 53.171875 
Q 48.296875 48.1875 45.671875 44.5 
Q 43.0625 40.828125 37.75 38.8125 
Q 44.34375 36.671875 47.78125 31.875 
Q 51.21875 27.09375 51.21875 20.453125 
Q 51.21875 11.28125 44.71875 5.03125 
Q 38.234375 -1.21875 27.640625 -1.21875 
Q 17.046875 -1.21875 10.546875 5.046875 
Q 4.046875 11.328125 4.046875 20.703125 
Q 4.046875 27.6875 7.59375 32.390625 
Q 11.140625 37.109375 17.671875 38.8125 
z
M 15.921875 53.71875 
Q 15.921875 48.640625 19.1875 45.40625 
Q 22.46875 42.1875 27.6875 42.1875 
Q 32.765625 42.1875 36.015625 45.375 
Q 39.265625 48.578125 39.265625 53.21875 
Q 39.265625 58.0625 35.90625 61.359375 
Q 32.5625 64.65625 27.59375 64.65625 
Q 22.5625 64.65625 19.234375 61.421875 
Q 15.921875 58.203125 15.921875 53.71875 
z
M 13.09375 20.65625 
Q 13.09375 16.890625 14.875 13.375 
Q 16.65625 9.859375 20.171875 7.921875 
Q 23.6875 6 27.734375 6 
Q 34.03125 6 38.125 10.046875 
Q 42.234375 14.109375 42.234375 20.359375 
Q 42.234375 26.703125 38.015625 30.859375 
Q 33.796875 35.015625 27.4375 35.015625 
Q 21.234375 35.015625 17.15625 30.90625 
Q 13.09375 26.8125 13.09375 20.65625 
z
" id="ArialMT-56"/>
       </defs>
       <use xlink:href="#ArialMT-48"/>
       <use x="55.615234" xlink:href="#ArialMT-46"/>
       <use x="83.398438" xlink:href="#ArialMT-56"/>
      </g>
     </g>
    </g>
    <g id="ytick_6">
     <g id="line2d_12">
      <path clip-path="url(#p959ad91ea9)" d="M 72 55.554545 
L 518.4 55.554545 
" style="fill:none;stroke:#cccccc;stroke-linecap:round;stroke-width:0.8;"/>
     </g>
     <g id="text_12">
      <!-- 1.0 -->
      <g style="fill:#262626;" transform="translate(51.1 59.133452)scale(0.1 -0.1)">
       <defs>
        <path d="M 37.25 0 
L 28.46875 0 
L 28.46875 56 
Q 25.296875 52.984375 20.140625 49.953125 
Q 14.984375 46.921875 10.890625 45.40625 
L 10.890625 53.90625 
Q 18.265625 57.375 23.78125 62.296875 
Q 29.296875 67.234375 31.59375 71.875 
L 37.25 71.875 
z
" id="ArialMT-49"/>
       </defs>
       <use xlink:href="#ArialMT-49"/>
       <use x="55.615234" xlink:href="#ArialMT-46"/>
       <use x="83.398438" xlink:href="#ArialMT-48"/>
      </g>
     </g>
    </g>
   </g>
   <g id="line2d_13">
    <path clip-path="url(#p959ad91ea9)" d="M 92.290909 274.07149 
L 92.438207 274.068124 
L 93.235116 274.031045 
L 97.775381 273.80654 
L 103.716666 273.4824 
L 107.390275 273.257014 
L 107.860599 273.228456 
L 110.525662 273.075771 
L 116.984033 272.665809 
L 118.526651 272.540714 
L 122.405836 272.251516 
L 124.058451 272.123541 
L 124.266367 272.103014 
L 129.05661 271.741119 
L 130.588008 271.61442 
L 132.303643 271.461509 
L 140.600235 270.686378 
L 140.818429 270.667185 
L 142.159393 270.528848 
L 146.694291 270.037864 
L 147.490705 269.941187 
L 149.151396 269.747507 
L 149.508331 269.70681 
L 151.773505 269.420519 
L 151.940333 269.399061 
L 153.391245 269.240132 
L 155.638821 268.92357 
L 155.749934 268.905889 
L 158.479352 268.561137 
L 159.018173 268.486506 
L 161.968891 268.085215 
L 162.287632 268.046505 
L 164.157089 267.782537 
L 164.366332 267.757337 
L 169.349649 267.02347 
L 169.578699 266.983163 
L 170.616081 266.81936 
L 171.941489 266.594395 
L 179.648572 265.266077 
L 179.831566 265.233477 
L 183.247022 264.589034 
L 183.371033 264.566514 
L 184.221671 264.404332 
L 184.329688 264.381592 
L 185.334166 264.185292 
L 186.023996 264.043014 
L 188.400739 263.523773 
L 188.510365 263.498982 
L 189.471173 263.308542 
L 189.640341 263.270432 
L 190.83273 263.013792 
L 191.186953 262.929203 
L 193.33945 262.42971 
L 195.160577 262.018209 
L 195.701207 261.877731 
L 196.428595 261.698321 
L 197.190789 261.51185 
L 197.719657 261.372258 
L 198.497278 261.203938 
L 199.529164 260.946619 
L 199.849932 260.869929 
L 200.503874 260.692925 
L 201.30938 260.469551 
L 201.418781 260.43036 
L 203.058971 259.987343 
L 204.500629 259.585411 
L 205.125444 259.412726 
L 205.385949 259.322987 
L 213.599883 256.73652 
L 213.727145 256.688706 
L 214.259128 256.496448 
L 214.620851 256.345646 
L 214.818569 256.29145 
L 215.666179 256.048098 
L 215.79661 256.001657 
L 216.275701 255.809283 
L 216.541351 255.702514 
L 216.959076 255.572314 
L 218.330139 255.072072 
L 218.44114 255.033942 
L 218.662515 254.932454 
L 219.125161 254.76828 
L 220.012519 254.407914 
L 220.431869 254.262852 
L 220.555708 254.217341 
L 220.960463 254.048205 
L 223.053657 253.263567 
L 224.228996 252.785036 
L 224.558933 252.642904 
L 225.449331 252.292218 
L 225.927301 252.104083 
L 226.331294 251.936149 
L 227.970251 251.247045 
L 228.384716 251.066664 
L 229.532575 250.553041 
L 229.70433 250.470264 
L 230.159372 250.254165 
L 230.330813 250.161512 
L 230.734012 249.978816 
L 230.879102 249.903218 
L 231.43669 249.646011 
L 233.829467 248.411366 
L 233.942324 248.352201 
L 234.246332 248.179698 
L 234.484901 248.04477 
L 234.901693 247.825542 
L 235.1603 247.679063 
L 235.47176 247.489394 
L 235.588544 247.42819 
L 236.089922 247.156078 
L 238.545871 245.699012 
L 238.827197 245.528174 
L 239.220131 245.300924 
L 239.931404 244.899995 
L 240.106468 244.798177 
L 240.39418 244.669854 
L 241.252552 244.126403 
L 241.539336 243.957133 
L 241.701665 243.838509 
L 243.643069 242.618896 
L 243.753774 242.534632 
L 244.434938 242.052636 
L 246.478316 240.488801 
L 246.60053 240.400907 
L 247.02781 240.153356 
L 247.250624 239.944774 
L 248.056341 239.299647 
L 248.190525 239.205701 
L 248.430427 239.032431 
L 250.136316 237.713668 
L 250.36637 237.502035 
L 250.537559 237.347252 
L 251.068476 236.872841 
L 251.342814 236.650026 
L 251.457908 236.527361 
L 251.703593 236.326317 
L 252.121217 235.940963 
L 252.209651 235.848275 
L 252.229929 235.853199 
L 252.444201 235.661212 
L 252.794235 235.347607 
L 253.007165 235.175381 
L 253.277733 234.940715 
L 253.392276 234.830246 
L 253.565303 234.686397 
L 253.69368 234.553999 
L 253.916494 234.321058 
L 254.074303 234.190279 
L 254.213898 234.022272 
L 256.278179 232.000036 
L 256.532057 231.788341 
L 257.318202 231.023889 
L 257.43215 230.916927 
L 259.003096 229.261858 
L 259.183923 229.124914 
L 259.398533 228.906153 
L 259.484699 228.828215 
L 259.642019 228.700325 
L 259.896971 228.436043 
L 260.287877 227.962135 
L 260.428007 227.834827 
L 260.864215 227.324919 
L 261.029146 227.151937 
L 261.143128 227.025553 
L 262.078336 225.915645 
L 262.204226 225.765825 
L 262.409822 225.452784 
L 262.594304 225.278521 
L 262.707407 225.158209 
L 262.944762 224.868378 
L 263.05723 224.698534 
L 265.696146 221.5926 
L 265.820075 221.407869 
L 265.928984 221.23527 
L 266.159535 220.896584 
L 266.576945 220.427425 
L 267.030032 219.831795 
L 267.140995 219.71522 
L 267.35288 219.413299 
L 267.567259 219.10442 
L 268.257926 218.243136 
L 268.430923 218.000145 
L 268.808277 217.438611 
L 269.023509 217.176391 
L 269.764807 216.096328 
L 270.146304 215.513749 
L 270.27241 215.34294 
L 270.434405 215.108002 
L 270.566299 214.896985 
L 271.691408 213.234583 
L 271.823547 212.98799 
L 271.984243 212.669858 
L 272.218424 212.265296 
L 272.414947 211.889443 
L 274.02676 209.198586 
L 274.202894 208.976635 
L 274.340312 208.746195 
L 274.443144 208.549428 
L 274.647547 208.124161 
L 274.784395 207.924778 
L 274.914035 207.739909 
L 275.301609 207.113811 
L 275.355916 206.964088 
L 275.637473 206.491313 
L 275.776146 206.181325 
L 275.901078 205.95245 
L 276.625668 204.739601 
L 276.764816 204.443389 
L 277.071452 203.89672 
L 277.07268 203.906319 
L 277.164623 203.752677 
L 277.294876 203.534199 
L 277.477602 203.298492 
L 277.646295 203.074591 
L 277.873827 202.669449 
L 278.539304 201.461645 
L 278.621278 201.300194 
L 278.897986 200.733925 
L 278.993794 200.538791 
L 279.115044 200.294739 
L 279.263837 199.998235 
L 279.451274 199.63318 
L 281.530145 195.10784 
L 281.892329 194.292541 
L 282.042527 194.002627 
L 282.767999 192.387023 
L 282.901086 192.07595 
L 283.029697 191.803476 
L 283.210396 191.415621 
L 283.341293 191.187025 
L 283.414973 190.932838 
L 283.545842 190.53037 
L 283.827968 189.910801 
L 283.956975 189.576371 
L 284.509385 188.224722 
L 284.625474 188.044497 
L 284.842992 187.654705 
L 284.963026 187.306022 
L 285.105371 186.973961 
L 285.496808 185.942691 
L 285.563681 185.708467 
L 285.696102 185.347247 
L 285.755384 185.210829 
L 285.903061 184.8656 
L 286.187975 184.278738 
L 286.309315 183.889382 
L 286.39338 183.712033 
L 286.874741 182.45614 
L 291.071316 171.176632 
L 291.256873 170.62076 
L 291.351784 170.307592 
L 291.543862 169.720395 
L 291.665583 169.294902 
L 291.839858 168.818964 
L 291.845628 168.829031 
L 291.896284 168.698034 
L 292.03729 168.243517 
L 293.12349 165.169181 
L 293.238523 164.790697 
L 293.536498 163.903799 
L 293.612886 163.682652 
L 293.724023 163.308609 
L 293.871591 162.864477 
L 296.978622 152.672439 
L 297.254902 151.492804 
L 297.342021 151.267173 
L 297.465078 150.815261 
L 297.77814 149.818677 
L 298.15411 148.744452 
L 298.254906 148.569646 
L 298.495906 147.715284 
L 298.501153 147.724853 
L 298.531335 147.563789 
L 298.692396 146.986843 
L 299.247217 144.982735 
L 299.384473 144.295616 
L 299.542562 143.740063 
L 300.205766 141.657093 
L 300.329248 141.299665 
L 300.650595 140.056486 
L 300.654771 140.065724 
L 300.801619 139.674229 
L 301.123399 138.523052 
L 301.129053 138.532222 
L 301.17738 138.423295 
L 301.448175 137.500518 
L 301.671128 136.510564 
L 301.746702 136.202629 
L 301.948329 135.536333 
L 302.131312 134.996291 
L 305.008437 124.742684 
L 305.109612 124.527414 
L 306.095634 121.08732 
L 306.098616 121.095422 
L 306.179447 120.886803 
L 306.325324 120.323766 
L 306.33659 120.331816 
L 306.456604 119.953736 
L 306.676565 119.162459 
L 306.767175 118.871239 
L 306.863855 118.540641 
L 306.94299 118.363217 
L 307.086601 117.797325 
L 311.667712 103.938706 
L 311.727691 103.849086 
L 312.010555 103.070397 
L 312.253002 102.186161 
L 312.711035 101.198857 
L 314.304957 97.122227 
L 314.372571 97.039428 
L 314.515266 96.731054 
L 314.643981 96.337845 
L 314.763973 95.888457 
L 315.138744 94.819932 
L 315.35789 94.453355 
L 315.459782 94.062251 
L 315.652071 93.680739 
L 315.843542 93.123315 
L 315.998489 93.041635 
L 316.204734 92.530835 
L 316.312766 92.318344 
L 316.312795 92.323792 
L 316.399519 92.136583 
L 316.50779 91.908045 
L 317.081096 90.800641 
L 317.15165 90.593755 
L 317.178276 90.604283 
L 317.30915 90.364781 
L 317.699698 89.758792 
L 317.838801 89.483944 
L 318.085949 88.886483 
L 318.197819 88.645967 
L 318.263996 88.568143 
L 318.380519 88.255747 
L 319.108267 86.965863 
L 319.174747 86.870709 
L 319.390052 86.393165 
L 319.430252 86.369187 
L 319.449874 86.30207 
L 319.600825 85.864074 
L 319.904186 85.258085 
L 319.956943 85.19473 
L 319.958167 85.160716 
L 320.080198 84.877066 
L 320.089496 84.881662 
L 320.1129 84.779183 
L 320.120244 84.783767 
L 320.319003 84.370217 
L 320.776928 83.270099 
L 320.91773 83.109286 
L 321.129775 82.703524 
L 321.134532 82.707841 
L 321.294878 82.409692 
L 321.397073 82.207404 
L 321.61565 81.801275 
L 321.720002 81.601602 
L 322.027731 81.204643 
L 322.258291 80.666178 
L 322.387036 80.582931 
L 322.592039 80.179492 
L 322.65449 80.111347 
L 322.785589 79.761759 
L 322.815695 79.769626 
L 322.86223 79.701082 
L 323.7797 78.253926 
L 323.9381 78.035751 
L 324.233636 77.708805 
L 324.287867 77.645324 
L 324.442976 77.379471 
L 324.519396 77.274425 
L 324.906707 76.708871 
L 324.996422 76.643993 
L 325.15966 76.448707 
L 325.177878 76.455706 
L 325.202162 76.379905 
L 325.215824 76.390377 
L 325.507761 75.878586 
L 325.508359 75.882004 
L 325.691482 75.669807 
L 325.994539 75.483739 
L 326.000438 75.487109 
L 326.003903 75.448685 
L 326.040468 75.410249 
L 326.75472 74.616362 
L 326.817616 74.395969 
L 326.851258 74.405615 
L 327.074176 74.346926 
L 327.427039 73.816455 
L 327.522456 73.750278 
L 327.632987 73.519922 
L 327.823815 73.36228 
L 327.990805 73.270903 
L 328.0721 73.041397 
L 328.083596 73.047464 
L 328.206013 72.991967 
L 328.462074 72.825245 
L 328.529195 72.751094 
L 328.73052 72.519127 
L 328.811754 72.453456 
L 328.919674 72.350233 
L 329.102311 72.261339 
L 329.269423 71.902366 
L 329.276383 71.905243 
L 329.319687 71.87037 
L 329.328458 71.832593 
L 329.688457 71.566178 
L 329.718169 71.530915 
L 329.720997 71.489966 
L 329.858172 71.21403 
L 329.953966 71.134598 
L 329.954041 71.137365 
L 330.084403 70.97548 
L 330.196572 70.813306 
L 330.222744 70.821455 
L 330.44091 70.757822 
L 330.60172 70.611085 
L 330.605734 70.613775 
L 330.624352 70.53616 
L 330.701905 70.375288 
L 330.735547 70.380596 
L 330.918266 70.315874 
L 330.997201 70.190765 
L 331.024623 70.19865 
L 331.115777 70.130837 
L 331.513131 69.611256 
L 331.515804 69.616334 
L 331.707674 69.554871 
L 331.80679 69.395995 
L 332.056994 69.346405 
L 332.19952 69.186531 
L 332.206112 69.189013 
L 332.433895 69.128676 
L 333.45059 68.362297 
L 333.615767 68.12127 
L 333.61745 68.123594 
L 333.874192 68.076184 
L 333.955159 67.959304 
L 333.991776 67.963918 
L 334.135204 67.892648 
L 334.333974 67.5341 
L 334.462962 67.459419 
L 334.621732 67.296138 
L 334.622484 67.298343 
L 334.739396 67.229629 
L 334.858154 66.967729 
L 335.116622 66.815354 
L 335.450776 66.76642 
L 335.575744 66.638309 
L 335.661355 66.59974 
L 335.661527 66.554831 
L 335.787311 66.299344 
L 335.936251 66.233601 
L 336.077505 66.110008 
L 336.238844 66.041452 
L 336.257044 65.954535 
L 336.29617 65.962535 
L 336.54846 65.891339 
L 336.692581 65.813867 
L 336.736739 65.73022 
L 336.796597 65.745981 
L 336.887283 65.673797 
L 336.984569 65.499332 
L 337.004236 65.501266 
L 337.245478 65.493798 
L 337.248251 65.447481 
L 337.363613 65.412698 
L 337.557682 65.344765 
L 337.638863 65.300122 
L 337.652005 65.305861 
L 337.743382 65.21642 
L 337.902111 65.190585 
L 338.211408 65.127184 
L 338.329095 64.820095 
L 338.948014 64.756997 
L 339.081504 64.586217 
L 339.319653 64.515759 
L 339.49163 64.241552 
L 339.809945 64.199333 
L 339.910783 64.10751 
L 339.928626 64.109251 
L 339.991268 64.119716 
L 340.037587 64.072806 
L 340.075107 63.978871 
L 340.174429 63.888187 
L 340.199561 63.895005 
L 340.443174 63.817571 
L 340.591008 63.537975 
L 340.612861 63.546196 
L 340.818698 63.51497 
L 340.973173 63.282167 
L 341.200253 63.206753 
L 341.253235 63.158556 
L 341.506588 63.091841 
L 341.643986 63.007272 
L 341.644909 63.008834 
L 341.891565 62.933122 
L 342.043326 62.798561 
L 342.232336 62.726089 
L 342.259437 62.628888 
L 342.333995 62.634893 
L 342.463401 62.552275 
L 342.464744 62.553765 
L 342.649484 62.472083 
L 342.763855 62.376676 
L 343.005695 62.404527 
L 343.005932 62.352887 
L 343.081733 62.156046 
L 343.122131 62.163164 
L 343.52308 62.101756 
L 343.586162 62.002826 
L 343.601457 62.007035 
L 343.98501 61.934196 
L 344.533076 61.670012 
L 344.758386 61.579443 
L 344.907568 61.37196 
L 345.144656 61.285104 
L 345.209634 61.235069 
L 345.253032 61.242685 
L 346.043532 61.220871 
L 346.220914 61.076382 
L 346.49959 60.993453 
L 346.616044 60.951645 
L 346.624642 60.957856 
L 347.059614 60.943145 
L 347.16881 60.724637 
L 347.197865 60.731857 
L 347.455961 60.645246 
L 347.587442 60.484393 
L 347.600788 60.487866 
L 347.781781 60.442455 
L 347.782471 60.385403 
L 347.893253 60.395664 
L 348.351135 60.329726 
L 348.431901 60.219611 
L 348.456348 60.222957 
L 348.989215 60.158716 
L 349.127394 60.052186 
L 349.246364 60.003012 
L 350.253135 59.989587 
L 350.340895 59.871772 
L 350.370178 59.875006 
L 351.119978 59.830592 
L 351.122457 59.768782 
L 351.190196 59.774151 
L 351.423765 59.724989 
L 351.512994 59.678672 
L 351.514148 59.679731 
L 352.205482 59.614314 
L 352.334881 59.558225 
L 353.346556 59.519204 
L 353.453834 59.332081 
L 353.460083 59.334108 
L 354.186467 59.266225 
L 354.218756 59.136145 
L 354.29282 59.143014 
L 354.67477 59.103504 
L 354.853121 59.047796 
L 355.753048 58.969488 
L 355.855929 58.912105 
L 356.380266 58.886481 
L 356.495497 58.758483 
L 356.853125 58.714596 
L 356.976126 58.512031 
L 356.990389 58.514623 
L 357.552699 58.493949 
L 357.654994 58.134194 
L 360.025413 58.156748 
L 360.044413 58.079504 
L 360.137355 58.090842 
L 360.564037 58.035453 
L 360.693207 57.963223 
L 362.081397 57.979031 
L 362.178178 57.900985 
L 362.193959 57.903374 
L 362.948681 57.890044 
L 362.997067 57.805908 
L 363.064983 57.81303 
L 364.062032 57.891051 
L 364.164547 57.805277 
L 364.813565 57.763532 
L 364.924175 57.677817 
L 364.930496 57.680199 
L 365.126047 57.696218 
L 365.126192 57.603874 
L 365.235479 57.612406 
L 365.340147 57.52708 
L 366.392251 57.501987 
L 366.479419 57.414877 
L 366.480912 57.415614 
L 369.947755 57.442732 
L 369.949054 57.332462 
L 370.044603 57.338075 
L 370.522059 57.269934 
L 370.568302 57.157801 
L 370.624466 57.163766 
L 371.586263 57.100597 
L 371.586389 56.982357 
L 371.663383 56.989959 
L 371.85585 56.997642 
L 371.955392 56.880611 
L 371.95563 56.881258 
L 373.39463 56.841013 
L 373.397959 56.712969 
L 373.504826 56.719034 
L 374.222377 56.751625 
L 374.395924 56.622063 
L 375.986489 56.694709 
L 377.128695 56.756395 
L 377.24845 56.611303 
L 380.123168 56.762585 
L 383.203769 56.948512 
L 383.207296 56.750337 
L 383.27954 56.755179 
L 386.2823 56.939029 
L 389.281618 57.133653 
L 389.287396 56.871871 
L 389.39739 56.881776 
L 391.007769 56.993022 
L 391.161705 56.70936 
L 391.166663 56.710711 
L 392.851815 56.836674 
L 392.864003 56.517391 
L 392.942011 56.523684 
L 398.587888 56.830606 
L 398.850617 56.862113 
L 399.809169 56.950762 
L 399.828902 56.487113 
L 399.921833 56.492422 
L 400.766081 56.535221 
L 400.901355 56.048806 
L 406.15388 56.235345 
L 407.768725 56.312614 
L 412.347958 56.588564 
L 417.375738 57.008253 
L 420.043059 57.159288 
L 420.109371 57.202081 
L 421.567196 57.385141 
L 421.57095 57.398802 
L 422.695644 57.547532 
L 423.841427 57.74154 
L 423.910521 57.780945 
L 424.079005 55.554545 
L 498.109091 55.554545 
L 498.109091 55.554545 
" style="fill:none;stroke:#1f77b4;stroke-linecap:round;stroke-width:1.5;"/>
   </g>
   <g id="line2d_14">
    <path clip-path="url(#p959ad91ea9)" d="M 92.290909 55.554545 
L 92.405134 55.593992 
L 204.820618 55.672884 
L 204.936596 55.71233 
L 223.384945 55.791223 
L 223.497616 55.870115 
L 225.997519 55.949007 
L 226.11099 55.988454 
L 235.183155 56.067346 
L 235.294878 56.106792 
L 239.368317 56.185684 
L 239.48087 56.225131 
L 245.347651 56.304023 
L 245.4594 56.343469 
L 246.392043 56.422362 
L 246.496087 56.461808 
L 247.752277 56.5407 
L 247.864237 56.580146 
L 249.426979 56.659039 
L 249.536248 56.698485 
L 251.513048 56.777377 
L 251.620329 56.816823 
L 252.825281 56.895716 
L 252.938665 56.935162 
L 256.490897 57.014054 
L 256.603259 57.092947 
L 260.181905 57.171839 
L 260.288652 57.250731 
L 262.464786 57.329624 
L 262.576468 57.36907 
L 263.508878 57.447962 
L 263.624962 57.487409 
L 264.452597 57.566301 
L 264.566897 57.605747 
L 264.854934 57.684639 
L 264.946654 57.724086 
L 266.21644 57.802978 
L 266.332242 57.921317 
L 268.116859 58.000209 
L 268.227567 58.039655 
L 268.560326 58.118548 
L 268.666845 58.157994 
L 269.209248 58.236886 
L 269.321415 58.276332 
L 270.180811 58.355225 
L 270.298663 58.434117 
L 271.234231 58.513009 
L 271.34943 58.552456 
L 273.342306 58.631348 
L 273.452377 58.71024 
L 274.801747 58.789133 
L 274.918853 58.828579 
L 275.822154 58.907471 
L 275.935982 58.946917 
L 277.385833 59.02581 
L 277.500916 59.065256 
L 277.823466 59.144148 
L 277.931938 59.183595 
L 279.018448 59.262487 
L 279.126812 59.301933 
L 279.735353 59.380825 
L 279.847169 59.420272 
L 280.432695 59.499164 
L 280.544718 59.578056 
L 281.39325 59.656949 
L 281.501758 59.696395 
L 281.948056 59.775287 
L 282.06232 59.85418 
L 282.54619 59.933072 
L 282.652988 59.972518 
L 282.76857 60.011964 
L 283.132458 60.090857 
L 283.261497 60.130303 
L 283.667613 60.209195 
L 283.770701 60.288088 
L 284.297937 60.36698 
L 284.398129 60.406426 
L 284.670488 60.485319 
L 284.782175 60.524765 
L 285.079862 60.603657 
L 285.188055 60.643103 
L 285.661794 60.721996 
L 285.7853 60.761442 
L 285.909593 60.840334 
L 286.021948 60.919227 
L 286.681116 60.998119 
L 286.801209 61.037565 
L 287.328874 61.116458 
L 287.438008 61.155904 
L 287.828256 61.234796 
L 287.936045 61.313689 
L 288.525293 61.392581 
L 288.635554 61.432027 
L 289.160503 61.51092 
L 289.272689 61.589812 
L 289.966011 61.668704 
L 290.075099 61.70815 
L 290.507466 61.787043 
L 290.631617 61.865935 
L 290.791542 61.944828 
L 290.900828 61.984274 
L 291.135401 62.063166 
L 291.241084 62.102612 
L 291.572059 62.181505 
L 291.683583 62.220951 
L 292.06501 62.299843 
L 292.18358 62.339289 
L 292.322763 62.418182 
L 292.436733 62.53652 
L 292.757747 62.615413 
L 292.869403 62.654859 
L 293.079106 62.733751 
L 293.186199 62.773197 
L 293.510088 62.85209 
L 293.64406 62.930982 
L 294.083017 63.009875 
L 294.194428 63.049321 
L 294.858039 63.128213 
L 294.96782 63.207106 
L 295.160069 63.285998 
L 295.275281 63.325444 
L 295.677885 63.404336 
L 295.80508 63.522675 
L 296.14053 63.601567 
L 296.250835 63.641014 
L 296.664423 63.719906 
L 296.774516 63.759352 
L 297.038421 63.838245 
L 297.149531 63.996029 
L 297.333742 64.074922 
L 297.454116 64.153814 
L 297.724121 64.232706 
L 297.846067 64.272153 
L 297.972521 64.351045 
L 298.07783 64.390491 
L 298.666886 64.469383 
L 298.784272 64.627168 
L 299.169344 64.706061 
L 299.27022 64.784953 
L 299.626386 64.863845 
L 299.745315 64.903292 
L 299.880994 64.982184 
L 299.99682 65.061076 
L 300.287865 65.139969 
L 300.400479 65.179415 
L 300.707937 65.258307 
L 300.821759 65.3372 
L 300.892423 65.416092 
L 300.997699 65.455538 
L 301.084455 65.534431 
L 301.201544 65.613323 
L 301.369279 65.692215 
L 301.483829 65.85 
L 301.958976 65.928892 
L 302.066284 66.047231 
L 302.418451 66.126123 
L 302.527064 66.165569 
L 302.631981 66.244462 
L 302.739532 66.323354 
L 303.168381 66.402247 
L 303.317849 66.560031 
L 303.494798 66.638924 
L 303.61126 66.717816 
L 303.702972 66.796708 
L 303.804442 66.875601 
L 304.216357 66.954493 
L 304.333278 67.112278 
L 304.486871 67.19117 
L 304.597987 67.270063 
L 304.689014 67.348955 
L 304.790331 67.388401 
L 304.908252 67.467294 
L 305.008437 67.625078 
L 305.225486 67.703971 
L 305.346087 67.822309 
L 305.531636 67.901202 
L 305.643211 68.01954 
L 305.772573 68.098433 
L 305.90273 68.137879 
L 306.095634 68.216771 
L 306.207732 68.33511 
L 306.321424 68.414002 
L 306.419415 68.532341 
L 306.549054 68.611233 
L 306.665124 68.690125 
L 306.811328 68.769018 
L 306.923632 68.808464 
L 307.028556 68.887356 
L 307.137119 68.966249 
L 307.378413 69.045141 
L 307.491297 69.242372 
L 307.637062 69.321264 
L 307.745094 69.400157 
L 307.910102 69.518495 
L 308.19717 69.597388 
L 308.339275 69.67628 
L 308.466916 69.755172 
L 308.638618 69.952403 
L 308.789755 70.031296 
L 308.904048 70.149634 
L 309.217051 70.228527 
L 309.329383 70.425758 
L 309.58164 70.50465 
L 309.705954 70.662435 
L 309.83579 70.741327 
L 309.94149 70.938558 
L 310.053279 71.01745 
L 310.162336 71.096343 
L 310.26435 71.175235 
L 310.392243 71.411912 
L 310.597169 71.490805 
L 310.699132 71.688036 
L 311.102671 72.043051 
L 311.352528 72.121944 
L 311.469522 72.240282 
L 311.572077 72.319175 
L 311.667712 72.437513 
L 311.908868 72.595298 
L 312.142449 72.67419 
L 312.253002 72.871421 
L 312.3432 72.950313 
L 312.471638 73.108098 
L 312.745636 73.186991 
L 312.857794 73.226437 
L 312.981295 73.305329 
L 313.091709 73.50256 
L 313.158691 73.581452 
L 313.277393 73.739237 
L 313.421018 73.857576 
L 313.629867 73.936468 
L 313.761564 74.015361 
L 313.924721 74.094253 
L 314.238931 74.488715 
L 314.372571 74.685946 
L 314.412804 74.764838 
L 314.81149 75.1593 
L 315.091986 75.238192 
L 315.205516 75.317085 
L 315.267725 75.395977 
L 315.459782 75.514316 
L 315.615908 75.593208 
L 315.923677 75.908777 
L 316.171436 75.98767 
L 316.305753 76.066562 
L 316.423721 76.145455 
L 316.892572 77.013271 
L 316.997985 77.092163 
L 317.117422 77.289394 
L 317.253049 77.368286 
L 317.595206 77.841641 
L 317.665732 77.920533 
L 317.80239 78.078318 
L 318.650346 79.143365 
L 318.676314 79.222257 
L 318.8895 79.458934 
L 318.976294 79.537827 
L 319.145906 79.774504 
L 319.240372 79.853396 
L 319.352815 79.971735 
L 319.479916 80.050627 
L 319.634217 80.366196 
L 320.070979 80.839551 
L 320.225079 81.076228 
L 320.282986 81.15512 
L 320.392404 81.352351 
L 320.643938 81.510136 
L 320.861874 81.589028 
L 321.258953 82.022936 
L 321.486283 82.101829 
L 321.602678 82.259613 
L 321.702267 82.338506 
L 321.859135 82.456844 
L 322.334122 83.166876 
L 323.040734 83.916353 
L 323.110718 83.995246 
L 324.356576 85.849216 
L 324.691374 86.283124 
L 324.850539 86.362017 
L 325.006572 86.63814 
L 325.101557 86.874817 
L 325.259191 87.229833 
L 325.424015 87.308725 
L 325.540823 87.505956 
L 325.604213 87.584848 
L 325.824504 87.860972 
L 325.856808 87.939864 
L 326.346198 88.413218 
L 326.392146 88.492111 
L 326.521375 88.649896 
L 327.251015 89.872727 
L 327.349563 89.991066 
L 327.537347 90.267189 
L 327.67235 90.503866 
L 327.790812 90.740543 
L 327.908057 90.97722 
L 327.970797 91.174451 
L 328.206013 91.726698 
L 328.272152 91.80559 
L 328.403889 92.002821 
L 328.586841 92.278945 
L 328.73052 92.357837 
L 328.876555 92.673406 
L 329.123004 93.225653 
L 329.269423 93.304545 
L 329.443567 93.659561 
L 329.467945 93.738454 
L 329.657486 94.093469 
L 329.786036 94.448485 
L 329.862685 94.527377 
L 329.954041 94.60627 
L 330.196572 94.685162 
L 330.302525 94.882393 
L 330.499528 95.158516 
L 330.735547 95.63187 
L 330.899318 95.868548 
L 331.323097 96.499687 
L 331.491138 96.578579 
L 331.692397 97.012487 
L 332.056994 97.801411 
L 332.121739 97.880303 
L 332.602736 98.708673 
L 332.690319 98.905904 
L 332.964244 99.142581 
L 333.068378 99.418704 
L 333.197752 99.497597 
L 333.29457 99.576489 
L 333.871642 100.878213 
L 334.004429 101.272675 
L 334.190109 101.588245 
L 334.462962 102.377168 
L 334.548572 102.456061 
L 334.659187 102.692738 
L 334.858154 103.0872 
L 334.95457 103.166092 
L 335.216385 103.876123 
L 335.294354 103.955016 
L 335.708944 104.704493 
L 336.814775 107.465726 
L 337.716086 109.753605 
L 337.816425 109.832497 
L 338.389609 111.489237 
L 338.496185 111.844253 
L 338.856357 112.830408 
L 339.03848 113.224869 
L 339.200958 113.619331 
L 339.28778 113.895455 
L 339.69149 114.999948 
L 339.754995 115.236625 
L 340.271401 116.42001 
L 340.335417 116.498903 
L 340.509344 116.893365 
L 340.669233 117.56395 
L 340.818698 117.800627 
L 340.844542 117.879519 
L 341.014252 118.273981 
L 341.424329 119.339028 
L 341.568489 119.891275 
L 341.706096 120.206844 
L 342.333995 122.139707 
L 342.363816 122.2186 
L 342.464744 122.691954 
L 342.562714 122.928631 
L 343.821861 126.794357 
L 343.883365 126.87325 
L 343.98501 127.031034 
L 344.0789 127.109927 
L 344.214817 127.583281 
L 344.268763 127.780512 
L 344.391411 128.096082 
L 344.437677 128.174974 
L 344.553701 128.687774 
L 344.59823 128.766667 
L 344.866896 129.200575 
L 345.091246 129.792268 
L 345.151194 129.87116 
L 345.277474 130.265622 
L 345.580232 131.251776 
L 346.449979 134.289133 
L 346.944018 135.985319 
L 347.057515 136.300888 
L 347.179009 136.69535 
L 347.976155 139.219906 
L 348.147263 139.811599 
L 348.303312 140.284953 
L 348.456348 140.8372 
L 348.55612 141.113323 
L 348.666897 141.468339 
L 348.902114 142.099478 
L 349.320846 143.677325 
L 349.420393 144.190125 
L 349.704813 145.334065 
L 349.804964 145.570742 
L 349.957727 146.201881 
L 350.212182 147.109143 
L 350.340895 147.385266 
L 350.51303 147.819175 
L 350.701749 148.686991 
L 350.851616 149.278683 
L 351.377212 150.935423 
L 351.449899 151.132654 
L 351.643475 151.921578 
L 351.719838 152.237147 
L 352.254802 154.091118 
L 352.386618 154.288349 
L 352.555683 154.643365 
L 353.006245 155.984535 
L 353.138017 156.615674 
L 353.353661 157.522936 
L 354.064518 159.850261 
L 354.186467 160.402508 
L 354.21022 160.4814 
L 354.320787 160.915308 
L 356.094621 165.924974 
L 356.231667 166.398328 
L 356.624667 167.857837 
L 356.778416 168.331191 
L 356.921653 169.001776 
L 357.315114 170.697962 
L 357.407906 171.013532 
L 358.257092 174.050888 
L 358.383506 174.484796 
L 358.486828 174.76092 
L 358.656506 175.352612 
L 358.95334 176.496552 
L 359.035368 176.772675 
L 359.206921 177.403814 
L 359.293137 177.679937 
L 360.602509 182.176803 
L 360.684558 182.41348 
L 361.109194 183.872989 
L 361.335563 184.58302 
L 361.435264 184.938036 
L 361.56631 185.293051 
L 361.869426 186.713114 
L 362.087885 187.225914 
L 362.305223 188.054284 
L 362.421791 188.882654 
L 363.129377 191.762226 
L 363.177388 192.117241 
L 363.531742 193.537304 
L 363.642079 193.931766 
L 363.781375 194.444566 
L 363.960544 194.917921 
L 364.216513 195.667398 
L 364.420534 196.337983 
L 364.525704 196.771891 
L 365.042514 198.507524 
L 365.904773 201.978788 
L 366.089084 202.333804 
L 366.848869 204.858359 
L 366.958248 205.173929 
L 367.058551 205.450052 
L 367.173801 205.726176 
L 367.561413 207.264577 
L 367.636649 207.5407 
L 367.746417 208.014054 
L 367.862886 208.171839 
L 368.113446 209.118548 
L 368.554909 210.933072 
L 368.672764 211.130303 
L 369.116469 212.668704 
L 369.200951 212.984274 
L 369.489112 214.128213 
L 369.598761 214.404336 
L 369.683948 214.601567 
L 370.744397 218.782863 
L 371.237125 219.966249 
L 371.347887 220.518495 
L 371.490187 220.99185 
L 371.598118 221.267973 
L 371.718013 221.741327 
L 371.979046 222.33302 
L 372.094974 222.727482 
L 372.444149 224.344775 
L 372.593527 224.778683 
L 372.823735 225.409822 
L 373.019684 226.001515 
L 373.409304 227.342685 
L 373.546314 227.81604 
L 373.649794 228.171055 
L 374.102429 229.236102 
L 374.222377 229.748903 
L 374.324131 229.827795 
L 374.492526 230.222257 
L 374.616226 230.774504 
L 374.849381 231.366196 
L 374.960213 231.721212 
L 375.297106 232.746813 
L 375.408496 233.141275 
L 375.677105 233.772414 
L 375.732117 233.930199 
L 375.877805 234.127429 
L 376.176166 235.15303 
L 376.268357 235.389707 
L 376.388896 235.823615 
L 377.02319 237.756479 
L 377.174539 238.229833 
L 377.290763 238.505956 
L 378.043159 240.833281 
L 378.150995 241.227743 
L 379.049938 243.594514 
L 379.182383 243.870637 
L 379.48605 244.580669 
L 379.652648 244.975131 
L 379.762291 245.487931 
L 379.898471 245.803501 
L 381.483211 250.103135 
L 381.637249 250.379258 
L 381.753341 250.813166 
L 381.939171 251.168182 
L 382.387093 252.193783 
L 382.543789 252.351567 
L 382.681744 252.588245 
L 382.77447 252.903814 
L 382.885835 253.377168 
L 383.921798 255.704493 
L 384.057432 256.098955 
L 384.113972 256.296186 
L 384.209418 256.414525 
L 384.902196 257.755695 
L 385.044551 258.307941 
L 385.384142 258.860188 
L 385.619995 259.294096 
L 387.38491 262.647022 
L 387.527368 262.844253 
L 387.61485 263.002038 
L 387.692974 263.159822 
L 388.033761 263.751515 
L 388.228082 264.303762 
L 388.353116 264.4221 
L 388.951075 265.211024 
L 389.075629 265.447701 
L 389.231436 265.763271 
L 389.337007 265.921055 
L 389.397114 266.118286 
L 389.508067 266.433856 
L 389.780887 266.749425 
L 389.885342 266.90721 
L 390.017504 267.22278 
L 390.368638 267.696134 
L 390.480787 267.893365 
L 391.007769 268.997858 
L 391.161705 269.07675 
L 391.29626 269.39232 
L 391.687481 270.023459 
L 391.756682 270.339028 
L 391.964287 270.73349 
L 393.073888 272.784692 
L 394.027427 274.007524 
L 394.164043 274.244201 
L 394.537854 274.520324 
L 395.354676 275.70371 
L 395.505814 276.019279 
L 395.729697 276.177064 
L 396.554676 277.399896 
L 396.713862 277.55768 
L 397.211058 278.188819 
L 397.428365 278.464943 
L 397.552904 278.622727 
L 397.859473 278.898851 
L 398.225703 279.451097 
L 398.359035 279.608882 
L 398.453897 279.766667 
L 398.84426 280.397806 
L 398.932462 280.634483 
L 399.240533 280.831714 
L 399.376273 281.107837 
L 399.483756 281.305068 
L 399.672978 281.738976 
L 399.847411 281.896761 
L 399.921833 281.975653 
L 400.205766 282.251776 
L 400.488968 282.606792 
L 400.744168 282.804023 
L 400.901355 283.001254 
L 401.096003 283.237931 
L 402.025778 284.460763 
L 402.13032 284.618548 
L 402.381902 284.934117 
L 402.50838 285.091902 
L 402.813031 285.289133 
L 403.046024 285.486364 
L 403.17984 285.604702 
L 403.345146 285.762487 
L 403.459989 285.920272 
L 403.697108 286.156949 
L 403.986161 286.393626 
L 404.213573 286.551411 
L 404.578372 286.86698 
L 405.599489 287.734796 
L 406.312754 288.642059 
L 406.79339 288.799843 
L 407.034768 289.075967 
L 407.270486 289.35209 
L 407.489073 289.549321 
L 407.643326 289.785998 
L 408.383446 290.377691 
L 408.538256 290.574922 
L 408.73937 290.811599 
L 408.9238 291.00883 
L 409.156756 291.166614 
L 410.37511 292.152769 
L 410.97509 292.310554 
L 411.262885 292.547231 
L 411.281253 292.626123 
L 411.775417 292.823354 
L 411.869638 292.902247 
L 412.341544 293.257262 
L 412.481306 293.454493 
L 412.894431 293.69117 
L 413.659097 294.125078 
L 413.668241 294.164525 
L 414.049116 294.361755 
L 414.054833 294.401202 
L 414.639912 294.558986 
L 414.844592 294.716771 
L 415.844394 295.229572 
L 416.11984 295.505695 
L 416.974472 295.781818 
L 416.974595 295.821264 
L 418.775899 296.334065 
L 419.318899 296.49185 
L 420.044224 296.68908 
L 420.109371 296.807419 
L 421.038904 297.083542 
L 421.216533 297.201881 
L 421.566598 297.359666 
L 421.57095 297.438558 
L 422.241442 297.596343 
L 422.467467 297.754127 
L 423.246349 297.990805 
L 423.346038 298.069697 
L 423.841427 298.266928 
L 424.079005 298.385266 
L 425.257312 298.543051 
L 426.095027 298.976959 
L 426.847353 299.17419 
L 426.942461 299.253083 
L 428.057471 299.48976 
L 431.503703 299.884222 
L 431.588979 300.00256 
L 432.18153 300.160345 
L 432.407307 300.278683 
L 433.092982 300.436468 
L 433.930713 300.594253 
L 437.86874 300.870376 
L 455.576343 302.014316 
L 472.104922 302.566562 
L 498.109091 302.645455 
L 498.109091 302.645455 
" style="fill:none;stroke:#ff7f0e;stroke-linecap:round;stroke-width:1.5;"/>
   </g>
   <g id="patch_3">
    <path d="M 72 315 
L 72 43.2 
" style="fill:none;stroke:#cccccc;stroke-linecap:square;stroke-linejoin:miter;stroke-width:0.8;"/>
   </g>
   <g id="patch_4">
    <path d="M 518.4 315 
L 518.4 43.2 
" style="fill:none;stroke:#cccccc;stroke-linecap:square;stroke-linejoin:miter;stroke-width:0.8;"/>
   </g>
   <g id="patch_5">
    <path d="M 72 315 
L 518.4 315 
" style="fill:none;stroke:#cccccc;stroke-linecap:square;stroke-linejoin:miter;stroke-width:0.8;"/>
   </g>
   <g id="patch_6">
    <path d="M 72 43.2 
L 518.4 43.2 
" style="fill:none;stroke:#cccccc;stroke-linecap:square;stroke-linejoin:miter;stroke-width:0.8;"/>
   </g>
   <g id="legend_1">
    <g id="patch_7">
     <path d="M 79 310 
L 151.017188 310 
Q 153.017188 310 153.017188 308 
L 153.017188 280.709375 
Q 153.017188 278.709375 151.017188 278.709375 
L 79 278.709375 
Q 77 278.709375 77 280.709375 
L 77 308 
Q 77 310 79 310 
z
" style="fill:#ffffff;opacity:0.8;stroke:#cccccc;stroke-linejoin:miter;"/>
    </g>
    <g id="line2d_15">
     <path d="M 81 286.367188 
L 101 286.367188 
" style="fill:none;stroke:#1f77b4;stroke-linecap:round;stroke-width:1.5;"/>
    </g>
    <g id="line2d_16"/>
    <g id="text_13">
     <!-- precision -->
     <g style="fill:#262626;" transform="translate(109 289.867188)scale(0.1 -0.1)">
      <defs>
       <path d="M 6.59375 -19.875 
L 6.59375 51.859375 
L 14.59375 51.859375 
L 14.59375 45.125 
Q 17.4375 49.078125 21 51.046875 
Q 24.5625 53.03125 29.640625 53.03125 
Q 36.28125 53.03125 41.359375 49.609375 
Q 46.4375 46.1875 49.015625 39.953125 
Q 51.609375 33.734375 51.609375 26.3125 
Q 51.609375 18.359375 48.75 11.984375 
Q 45.90625 5.609375 40.453125 2.21875 
Q 35.015625 -1.171875 29 -1.171875 
Q 24.609375 -1.171875 21.109375 0.6875 
Q 17.625 2.546875 15.375 5.375 
L 15.375 -19.875 
z
M 14.546875 25.640625 
Q 14.546875 15.625 18.59375 10.84375 
Q 22.65625 6.0625 28.421875 6.0625 
Q 34.28125 6.0625 38.453125 11.015625 
Q 42.625 15.96875 42.625 26.375 
Q 42.625 36.28125 38.546875 41.203125 
Q 34.46875 46.140625 28.8125 46.140625 
Q 23.1875 46.140625 18.859375 40.890625 
Q 14.546875 35.640625 14.546875 25.640625 
z
" id="ArialMT-112"/>
       <path d="M 6.5 0 
L 6.5 51.859375 
L 14.40625 51.859375 
L 14.40625 44 
Q 17.4375 49.515625 20 51.265625 
Q 22.5625 53.03125 25.640625 53.03125 
Q 30.078125 53.03125 34.671875 50.203125 
L 31.640625 42.046875 
Q 28.421875 43.953125 25.203125 43.953125 
Q 22.3125 43.953125 20.015625 42.21875 
Q 17.71875 40.484375 16.75 37.40625 
Q 15.28125 32.71875 15.28125 27.15625 
L 15.28125 0 
z
" id="ArialMT-114"/>
       <path d="M 42.09375 16.703125 
L 51.171875 15.578125 
Q 49.03125 7.625 43.21875 3.21875 
Q 37.40625 -1.171875 28.375 -1.171875 
Q 17 -1.171875 10.328125 5.828125 
Q 3.65625 12.84375 3.65625 25.484375 
Q 3.65625 38.578125 10.390625 45.796875 
Q 17.140625 53.03125 27.875 53.03125 
Q 38.28125 53.03125 44.875 45.953125 
Q 51.46875 38.875 51.46875 26.03125 
Q 51.46875 25.25 51.421875 23.6875 
L 12.75 23.6875 
Q 13.234375 15.140625 17.578125 10.59375 
Q 21.921875 6.0625 28.421875 6.0625 
Q 33.25 6.0625 36.671875 8.59375 
Q 40.09375 11.140625 42.09375 16.703125 
z
M 13.234375 30.90625 
L 42.1875 30.90625 
Q 41.609375 37.453125 38.875 40.71875 
Q 34.671875 45.796875 27.984375 45.796875 
Q 21.921875 45.796875 17.796875 41.75 
Q 13.671875 37.703125 13.234375 30.90625 
z
" id="ArialMT-101"/>
       <path d="M 40.4375 19 
L 49.078125 17.875 
Q 47.65625 8.9375 41.8125 3.875 
Q 35.984375 -1.171875 27.484375 -1.171875 
Q 16.84375 -1.171875 10.375 5.78125 
Q 3.90625 12.75 3.90625 25.734375 
Q 3.90625 34.125 6.6875 40.421875 
Q 9.46875 46.734375 15.15625 49.875 
Q 20.84375 53.03125 27.546875 53.03125 
Q 35.984375 53.03125 41.359375 48.75 
Q 46.734375 44.484375 48.25 36.625 
L 39.703125 35.296875 
Q 38.484375 40.53125 35.375 43.15625 
Q 32.28125 45.796875 27.875 45.796875 
Q 21.234375 45.796875 17.078125 41.03125 
Q 12.9375 36.28125 12.9375 25.984375 
Q 12.9375 15.53125 16.9375 10.796875 
Q 20.953125 6.0625 27.390625 6.0625 
Q 32.5625 6.0625 36.03125 9.234375 
Q 39.5 12.40625 40.4375 19 
z
" id="ArialMT-99"/>
       <path d="M 6.640625 61.46875 
L 6.640625 71.578125 
L 15.4375 71.578125 
L 15.4375 61.46875 
z
M 6.640625 0 
L 6.640625 51.859375 
L 15.4375 51.859375 
L 15.4375 0 
z
" id="ArialMT-105"/>
       <path d="M 3.078125 15.484375 
L 11.765625 16.84375 
Q 12.5 11.625 15.84375 8.84375 
Q 19.1875 6.0625 25.203125 6.0625 
Q 31.25 6.0625 34.171875 8.515625 
Q 37.109375 10.984375 37.109375 14.3125 
Q 37.109375 17.28125 34.515625 19 
Q 32.71875 20.171875 25.53125 21.96875 
Q 15.875 24.421875 12.140625 26.203125 
Q 8.40625 27.984375 6.46875 31.125 
Q 4.546875 34.28125 4.546875 38.09375 
Q 4.546875 41.546875 6.125 44.5 
Q 7.71875 47.46875 10.453125 49.421875 
Q 12.5 50.921875 16.03125 51.96875 
Q 19.578125 53.03125 23.640625 53.03125 
Q 29.734375 53.03125 34.34375 51.265625 
Q 38.96875 49.515625 41.15625 46.5 
Q 43.359375 43.5 44.1875 38.484375 
L 35.59375 37.3125 
Q 35.015625 41.3125 32.203125 43.546875 
Q 29.390625 45.796875 24.265625 45.796875 
Q 18.21875 45.796875 15.625 43.796875 
Q 13.03125 41.796875 13.03125 39.109375 
Q 13.03125 37.40625 14.109375 36.03125 
Q 15.1875 34.625 17.484375 33.6875 
Q 18.796875 33.203125 25.25 31.453125 
Q 34.578125 28.953125 38.25 27.359375 
Q 41.9375 25.78125 44.03125 22.75 
Q 46.140625 19.734375 46.140625 15.234375 
Q 46.140625 10.84375 43.578125 6.953125 
Q 41.015625 3.078125 36.171875 0.953125 
Q 31.34375 -1.171875 25.25 -1.171875 
Q 15.140625 -1.171875 9.84375 3.03125 
Q 4.546875 7.234375 3.078125 15.484375 
z
" id="ArialMT-115"/>
       <path d="M 3.328125 25.921875 
Q 3.328125 40.328125 11.328125 47.265625 
Q 18.015625 53.03125 27.640625 53.03125 
Q 38.328125 53.03125 45.109375 46.015625 
Q 51.90625 39.015625 51.90625 26.65625 
Q 51.90625 16.65625 48.90625 10.90625 
Q 45.90625 5.171875 40.15625 2 
Q 34.421875 -1.171875 27.640625 -1.171875 
Q 16.75 -1.171875 10.03125 5.8125 
Q 3.328125 12.796875 3.328125 25.921875 
z
M 12.359375 25.921875 
Q 12.359375 15.96875 16.703125 11.015625 
Q 21.046875 6.0625 27.640625 6.0625 
Q 34.1875 6.0625 38.53125 11.03125 
Q 42.875 16.015625 42.875 26.21875 
Q 42.875 35.84375 38.5 40.796875 
Q 34.125 45.75 27.640625 45.75 
Q 21.046875 45.75 16.703125 40.8125 
Q 12.359375 35.890625 12.359375 25.921875 
z
" id="ArialMT-111"/>
       <path d="M 6.59375 0 
L 6.59375 51.859375 
L 14.5 51.859375 
L 14.5 44.484375 
Q 20.21875 53.03125 31 53.03125 
Q 35.6875 53.03125 39.625 51.34375 
Q 43.5625 49.65625 45.515625 46.921875 
Q 47.46875 44.1875 48.25 40.4375 
Q 48.734375 37.984375 48.734375 31.890625 
L 48.734375 0 
L 39.9375 0 
L 39.9375 31.546875 
Q 39.9375 36.921875 38.90625 39.578125 
Q 37.890625 42.234375 35.28125 43.8125 
Q 32.671875 45.40625 29.15625 45.40625 
Q 23.53125 45.40625 19.453125 41.84375 
Q 15.375 38.28125 15.375 28.328125 
L 15.375 0 
z
" id="ArialMT-110"/>
      </defs>
      <use xlink:href="#ArialMT-112"/>
      <use x="55.615234" xlink:href="#ArialMT-114"/>
      <use x="88.916016" xlink:href="#ArialMT-101"/>
      <use x="144.53125" xlink:href="#ArialMT-99"/>
      <use x="194.53125" xlink:href="#ArialMT-105"/>
      <use x="216.748047" xlink:href="#ArialMT-115"/>
      <use x="266.748047" xlink:href="#ArialMT-105"/>
      <use x="288.964844" xlink:href="#ArialMT-111"/>
      <use x="344.580078" xlink:href="#ArialMT-110"/>
     </g>
    </g>
    <g id="line2d_17">
     <path d="M 81 300.5125 
L 101 300.5125 
" style="fill:none;stroke:#ff7f0e;stroke-linecap:round;stroke-width:1.5;"/>
    </g>
    <g id="line2d_18"/>
    <g id="text_14">
     <!-- recall -->
     <g style="fill:#262626;" transform="translate(109 304.0125)scale(0.1 -0.1)">
      <defs>
       <path d="M 40.4375 6.390625 
Q 35.546875 2.25 31.03125 0.53125 
Q 26.515625 -1.171875 21.34375 -1.171875 
Q 12.796875 -1.171875 8.203125 3 
Q 3.609375 7.171875 3.609375 13.671875 
Q 3.609375 17.484375 5.34375 20.625 
Q 7.078125 23.78125 9.890625 25.6875 
Q 12.703125 27.59375 16.21875 28.5625 
Q 18.796875 29.25 24.03125 29.890625 
Q 34.671875 31.15625 39.703125 32.90625 
Q 39.75 34.71875 39.75 35.203125 
Q 39.75 40.578125 37.25 42.78125 
Q 33.890625 45.75 27.25 45.75 
Q 21.046875 45.75 18.09375 43.578125 
Q 15.140625 41.40625 13.71875 35.890625 
L 5.125 37.0625 
Q 6.296875 42.578125 8.984375 45.96875 
Q 11.671875 49.359375 16.75 51.1875 
Q 21.828125 53.03125 28.515625 53.03125 
Q 35.15625 53.03125 39.296875 51.46875 
Q 43.453125 49.90625 45.40625 47.53125 
Q 47.359375 45.171875 48.140625 41.546875 
Q 48.578125 39.3125 48.578125 33.453125 
L 48.578125 21.734375 
Q 48.578125 9.46875 49.140625 6.21875 
Q 49.703125 2.984375 51.375 0 
L 42.1875 0 
Q 40.828125 2.734375 40.4375 6.390625 
z
M 39.703125 26.03125 
Q 34.90625 24.078125 25.34375 22.703125 
Q 19.921875 21.921875 17.671875 20.9375 
Q 15.4375 19.96875 14.203125 18.09375 
Q 12.984375 16.21875 12.984375 13.921875 
Q 12.984375 10.40625 15.640625 8.0625 
Q 18.3125 5.71875 23.4375 5.71875 
Q 28.515625 5.71875 32.46875 7.9375 
Q 36.421875 10.15625 38.28125 14.015625 
Q 39.703125 17 39.703125 22.796875 
z
" id="ArialMT-97"/>
       <path d="M 6.390625 0 
L 6.390625 71.578125 
L 15.1875 71.578125 
L 15.1875 0 
z
" id="ArialMT-108"/>
      </defs>
      <use xlink:href="#ArialMT-114"/>
      <use x="33.300781" xlink:href="#ArialMT-101"/>
      <use x="88.916016" xlink:href="#ArialMT-99"/>
      <use x="138.916016" xlink:href="#ArialMT-97"/>
      <use x="194.53125" xlink:href="#ArialMT-108"/>
      <use x="216.748047" xlink:href="#ArialMT-108"/>
     </g>
    </g>
   </g>
  </g>
 </g>
 <defs>
  <clipPath id="p959ad91ea9">
   <rect height="271.8" width="446.4" x="72" y="43.2"/>
  </clipPath>
 </defs>
</svg>
